<svg width="442" height="433" viewBox="0 0 442 433" fill="none" xmlns="http://www.w3.org/2000/svg">
<path d="M220.766 380.995C315.327 380.995 391.984 376.519 391.984 370.999C391.984 365.478 315.327 361.002 220.766 361.002C126.206 361.002 49.5488 365.478 49.5488 370.999C49.5488 376.519 126.206 380.995 220.766 380.995Z" fill="#F5F5F5"/>
<path d="M308.411 147.751L299.651 144.219C299.651 144.219 288.091 165.297 284.78 166.366C280.276 167.814 270.951 171.841 265.423 172.547C264.672 173.43 263.445 176.177 263.56 177.175C270.986 179.656 287.305 176.362 290.802 173.766C298.759 167.876 308.411 147.751 308.411 147.751Z" fill="#E58A7B"/>
<path d="M311.104 142.955C312.738 148.986 303.889 161.119 303.889 161.119L292.295 154.62C292.295 154.62 294.467 149.631 297.116 144.553C301.364 136.349 309.241 136.076 311.104 142.955Z" fill="#3083DC"/>
<path opacity="0.2" d="M311.104 142.955C312.738 148.986 303.889 161.119 303.889 161.119L292.295 154.62C292.295 154.62 294.467 149.631 297.116 144.553C301.364 136.349 309.241 136.076 311.104 142.955Z" fill="black"/>
<path opacity="0.2" d="M296.896 157.217L301.461 159.778L302.265 145.764C299.607 147.804 297.734 153.95 296.896 157.217Z" fill="black"/>
<path d="M303.474 138.418C303.474 138.418 294.449 158.499 299.712 195.888H335.274C335.839 190.43 333.967 163.797 340.74 138.082C336.839 137.32 332.892 136.815 328.924 136.572C323.892 136.281 318.847 136.281 313.815 136.572C310.327 136.926 306.87 137.543 303.474 138.418Z" fill="#3083DC"/>
<path opacity="0.2" d="M303.474 138.418C303.474 138.418 294.449 158.499 299.712 195.888H335.274C335.839 190.43 333.967 163.797 340.74 138.082C336.839 137.32 332.892 136.815 328.924 136.572C323.892 136.281 318.847 136.281 313.815 136.572C310.327 136.926 306.87 137.543 303.474 138.418Z" fill="black"/>
<g style="mix-blend-mode:multiply">
<path d="M295.226 371.793C295.173 372.747 308.658 373.515 325.339 373.515C342.02 373.515 355.602 372.747 355.655 371.793C355.708 370.84 342.232 370.08 325.542 370.08C308.852 370.08 295.288 370.849 295.226 371.793Z" fill="#E8ECF1"/>
</g>
<path d="M318.964 346.734L312.657 349.176L318.09 363.211L324.397 360.77L318.964 346.734Z" fill="#E58A7B"/>
<path d="M347.089 365.003H340.439L338.002 349.611H344.652L347.089 365.003Z" fill="#E58A7B"/>
<path d="M339.98 364.234H347.451C347.581 364.235 347.706 364.281 347.804 364.365C347.903 364.449 347.969 364.566 347.99 364.694L348.952 370.601C348.972 370.75 348.961 370.9 348.917 371.044C348.874 371.187 348.801 371.319 348.702 371.431C348.603 371.544 348.481 371.633 348.344 371.694C348.208 371.755 348.06 371.786 347.91 371.785C345.305 371.74 344.051 371.581 340.766 371.581C338.744 371.581 334.585 371.793 331.777 371.793C328.968 371.793 328.783 369.038 329.94 368.782C335.132 367.661 337.146 366.133 338.876 364.649C339.182 364.381 339.574 364.234 339.98 364.234Z" fill="#263238"/>
<path d="M317.904 361.957L324.968 359.891C325.094 359.855 325.229 359.864 325.349 359.915C325.47 359.967 325.569 360.058 325.63 360.173L328.28 365.472C328.341 365.606 328.373 365.752 328.372 365.9C328.371 366.048 328.338 366.194 328.275 366.328C328.212 366.461 328.12 366.58 328.007 366.674C327.893 366.769 327.76 366.838 327.617 366.876C325.048 367.582 323.326 368.015 320.111 368.951C317.895 369.596 315.634 370.646 313.444 371.344C311.925 371.83 308.358 371.847 306.512 371.847C303.783 371.847 303.174 368.969 304.349 368.836C307.307 368.509 307.704 368.66 309.338 367.838C312.011 366.67 314.434 364.997 316.473 362.911C316.858 362.472 317.351 362.143 317.904 361.957Z" fill="#263238"/>
<path d="M266.536 172.511L259.224 169.447L256.213 177.553C259.21 178.01 262.258 178.01 265.255 177.553L266.536 172.511Z" fill="#E58A7B"/>
<path d="M253.784 169.236L253.59 174.622L256.213 177.537L259.224 169.43L253.784 169.236Z" fill="#E58A7B"/>
<path d="M319.829 347.926L313.502 350.369L316.304 357.627L322.631 355.184L319.829 347.926Z" fill="#CF6F64"/>
<path d="M344.652 349.611H338.002L339.265 357.55H345.914L344.652 349.611Z" fill="#CF6F64"/>
<path opacity="0.2" d="M298.582 185.775C298.715 187.373 298.865 189.007 299.059 190.684L325.498 182.101C329.627 180.877 333.215 178.283 335.671 174.745C335.777 172.387 335.909 169.906 336.112 167.319C336.201 166.065 336.307 164.775 336.422 163.468C336.536 162.161 336.695 160.713 336.863 159.318L298.582 185.775Z" fill="black"/>
<path d="M307.219 156.81L306.335 156.704C306.856 152.289 310.15 148.809 313.621 148.898V149.781C310.583 149.719 307.687 152.854 307.219 156.81Z" fill="white"/>
<path d="M311.925 164.962H311.775V164.079C314.813 164.193 317.665 161.023 318.133 157.076L319.016 157.182C318.548 161.5 315.36 164.962 311.925 164.962Z" fill="white"/>
<path d="M328.43 119.555C327.185 124.42 325.719 133.33 328.924 136.571C328.924 136.571 326.681 141.508 317.648 141.508C309.391 141.508 313.815 136.571 313.815 136.571C319.308 135.282 319.405 131.273 318.681 127.476L328.43 119.555Z" fill="#E58A7B"/>
<path d="M324.456 122.785L318.69 127.475C318.868 128.347 318.972 129.233 318.999 130.124C320.685 131.802 324.067 127.554 324.412 125.382C324.587 124.526 324.602 123.646 324.456 122.785Z" fill="#CF6F64"/>
<path d="M308.773 119.494C309.174 120.189 309.714 120.794 310.36 121.271C311.006 121.749 311.743 122.087 312.526 122.267C314.645 122.735 315.705 120.783 315.122 118.823C314.601 117.056 312.861 114.681 310.707 115.087C310.245 115.182 309.813 115.387 309.447 115.683C309.08 115.979 308.79 116.359 308.601 116.791C308.412 117.222 308.328 117.693 308.358 118.163C308.388 118.633 308.53 119.09 308.773 119.494Z" fill="#CF6F64"/>
<path d="M312.279 103.924C308.976 105.434 307.81 118.557 311.961 120.499C316.111 122.442 318.531 101.054 312.279 103.924Z" fill="#263238"/>
<path d="M329.436 112.233C328.642 118.821 328.553 122.697 325.021 126.071C323.927 127.19 322.544 127.985 321.026 128.368C319.508 128.751 317.914 128.708 316.419 128.242C314.924 127.776 313.587 126.906 312.556 125.728C311.525 124.55 310.839 123.11 310.574 121.567C309.506 115.65 310.98 105.875 317.586 103.252C318.974 102.64 320.5 102.41 322.006 102.587C323.513 102.763 324.945 103.339 326.154 104.255C327.363 105.171 328.305 106.394 328.882 107.797C329.459 109.2 329.651 110.731 329.436 112.233Z" fill="#E58A7B"/>
<path d="M318.584 107.333C323.476 106.088 327.07 105.24 325.781 109.311C324.076 114.751 322.028 120.014 324.774 120.252C326.452 120.402 333.869 117.259 332.925 114.071C332.103 111.298 335.574 110.538 336.192 109.134C338.479 104.048 331.936 104.719 333.101 101.628C334.267 98.538 327.803 93.5576 324.271 96.039C318.522 100.048 308.658 99.9863 313.842 93.3898C317.559 88.683 310.927 89.6456 310.927 89.6456C310.927 89.6456 314.937 92.021 308.19 95.6946C301.055 99.6154 307.598 110.15 318.584 107.333Z" fill="#263238"/>
<path d="M332.033 119.494C331.067 120.891 329.616 121.88 327.962 122.267C325.781 122.735 324.942 120.783 325.763 118.823C326.496 117.056 328.509 114.681 330.593 115.087C332.677 115.493 333.154 117.763 332.033 119.494Z" fill="#E58A7B"/>
<path d="M299.712 195.887C299.712 195.887 293.743 249.312 293.275 269.587C292.798 290.675 313.506 356.472 313.506 356.472L324.103 352.057C324.103 352.057 311.74 291.938 313.506 271.23C315.378 248.65 323.114 195.922 323.114 195.922L299.712 195.887Z" fill="#3083DC"/>
<path opacity="0.2" d="M314.548 210.553C309.788 220.426 312.994 239.951 315.572 251.519C316.553 243.35 317.718 234.484 318.822 226.281C318.716 213.671 317.736 203.93 314.548 210.553Z" fill="black"/>
<path d="M323.635 348.561C323.688 348.561 324.889 351.934 324.889 351.934L312.667 357.074L310.742 353.488L323.635 348.561Z" fill="#3083DC"/>
<path d="M312.331 195.887C312.331 195.887 316.897 246.698 319.917 265.728C323.237 286.578 336.254 356.013 336.254 356.013H348.431C348.431 356.013 341.137 288.264 339.76 267.618C338.258 245.224 335.274 195.887 335.274 195.887H312.331Z" fill="#3083DC"/>
<path d="M348.617 352.844C348.67 352.844 349.023 356.244 349.023 356.244H335.636L334.682 352.34L348.617 352.844Z" fill="#3083DC"/>
<path opacity="0.2" d="M343.954 348.816C343.926 348.816 343.9 348.807 343.879 348.789C343.857 348.771 343.844 348.746 343.839 348.719C343.769 348.101 337.19 286.904 335.954 268.36C334.611 248.244 331.909 203.622 331.883 203.172C331.881 203.157 331.883 203.143 331.888 203.129C331.893 203.115 331.9 203.102 331.91 203.091C331.92 203.08 331.932 203.072 331.946 203.066C331.959 203.06 331.974 203.057 331.989 203.057C332.018 203.057 332.045 203.068 332.067 203.088C332.088 203.107 332.101 203.134 332.103 203.163C332.103 203.614 334.832 248.2 336.174 268.351C337.411 286.895 343.989 348.048 344.051 348.71C344.054 348.725 344.053 348.74 344.05 348.754C344.046 348.768 344.039 348.782 344.03 348.793C344.021 348.805 344.009 348.815 343.996 348.822C343.983 348.829 343.969 348.833 343.954 348.834V348.816Z" fill="black"/>
<path d="M319.334 114.072C319.334 114.61 318.999 115.043 318.645 115.043C318.292 115.043 318.036 114.61 318.071 114.072C318.107 113.533 318.407 113.1 318.76 113.1C319.113 113.1 319.37 113.542 319.334 114.072Z" fill="#263238"/>
<path d="M313.276 114.072C313.276 114.61 312.932 115.043 312.588 115.043C312.243 115.043 311.978 114.61 312.005 114.072C312.031 113.533 312.349 113.1 312.702 113.1C313.056 113.1 313.312 113.542 313.276 114.072Z" fill="#263238"/>
<path d="M315.184 114.344C314.447 115.989 313.497 117.53 312.358 118.928C313.241 119.811 314.892 119.404 314.892 119.404L315.184 114.344Z" fill="#DF5753"/>
<path d="M315.343 121.656C315.322 121.656 315.302 121.652 315.283 121.644C315.264 121.636 315.247 121.624 315.233 121.609C315.219 121.594 315.208 121.577 315.201 121.557C315.194 121.538 315.191 121.518 315.193 121.497C315.195 121.454 315.214 121.414 315.245 121.384C315.276 121.355 315.317 121.338 315.36 121.338C316.036 121.343 316.704 121.196 317.315 120.909C317.926 120.622 318.465 120.201 318.893 119.678C318.923 119.651 318.962 119.637 319.003 119.637C319.044 119.637 319.083 119.651 319.113 119.678C319.142 119.708 319.158 119.747 319.158 119.789C319.158 119.83 319.142 119.869 319.113 119.899C318.656 120.455 318.08 120.901 317.427 121.205C316.775 121.509 316.063 121.663 315.343 121.656Z" fill="#263238"/>
<path d="M320.412 112.446C320.369 112.467 320.322 112.479 320.275 112.479C320.227 112.479 320.18 112.467 320.138 112.446C319.807 112.232 319.432 112.099 319.04 112.058C318.649 112.017 318.254 112.068 317.886 112.207C317.85 112.225 317.811 112.236 317.771 112.238C317.731 112.241 317.691 112.236 317.653 112.222C317.615 112.209 317.58 112.189 317.551 112.162C317.521 112.135 317.497 112.102 317.48 112.066C317.447 111.987 317.446 111.899 317.478 111.82C317.509 111.741 317.57 111.677 317.648 111.642C318.109 111.454 318.61 111.379 319.106 111.425C319.603 111.472 320.081 111.637 320.5 111.907C320.534 111.93 320.563 111.96 320.585 111.994C320.607 112.028 320.623 112.067 320.63 112.107C320.637 112.147 320.637 112.188 320.628 112.228C320.619 112.268 320.603 112.306 320.579 112.34C320.535 112.39 320.476 112.427 320.412 112.446Z" fill="#263238"/>
<path d="M310.936 110.68C310.889 110.668 310.846 110.644 310.813 110.609C310.783 110.58 310.76 110.546 310.744 110.508C310.728 110.47 310.72 110.429 310.72 110.388C310.72 110.347 310.728 110.306 310.744 110.269C310.76 110.231 310.783 110.196 310.813 110.168C311.151 109.788 311.573 109.492 312.044 109.302C312.516 109.112 313.025 109.033 313.532 109.073C313.573 109.079 313.612 109.093 313.647 109.115C313.682 109.137 313.711 109.166 313.735 109.2C313.758 109.234 313.774 109.272 313.782 109.313C313.789 109.353 313.789 109.394 313.78 109.435C313.761 109.516 313.713 109.588 313.644 109.637C313.576 109.686 313.492 109.708 313.409 109.699C313.008 109.674 312.606 109.741 312.234 109.894C311.862 110.047 311.53 110.282 311.263 110.583C311.223 110.627 311.171 110.66 311.113 110.677C311.056 110.694 310.994 110.695 310.936 110.68Z" fill="#263238"/>
<path d="M344.157 146.77L334.973 144.324C334.973 144.324 325.966 166.497 322.778 167.937C318.451 169.915 307.492 176.767 302.83 180.008C302.574 181.112 302.777 184.035 303.36 184.839C311.307 183.39 326.522 177.536 329.701 174.56C336.951 167.769 344.157 146.77 344.157 146.77Z" fill="#E58A7B"/>
<path d="M337.746 365.399C337.298 365.434 336.851 365.313 336.483 365.055C336.37 364.952 336.285 364.821 336.237 364.676C336.189 364.53 336.179 364.375 336.21 364.224C336.215 364.131 336.246 364.04 336.299 363.962C336.352 363.885 336.425 363.823 336.51 363.783C337.252 363.403 339.327 364.719 339.565 364.869C339.591 364.885 339.612 364.91 339.623 364.938C339.634 364.967 339.635 364.998 339.627 365.028C339.62 365.059 339.604 365.087 339.583 365.11C339.561 365.134 339.534 365.151 339.503 365.161C338.928 365.302 338.339 365.382 337.746 365.399ZM336.863 364.021C336.796 364.007 336.727 364.007 336.66 364.021C336.626 364.039 336.598 364.065 336.579 364.098C336.56 364.131 336.552 364.169 336.554 364.207C336.53 364.31 336.534 364.417 336.565 364.517C336.596 364.618 336.653 364.709 336.731 364.781C337.075 365.09 337.94 365.125 339.08 364.904C338.401 364.458 337.637 364.157 336.837 364.021H336.863Z" fill="#3083DC"/>
<path d="M339.459 365.162C339.436 365.169 339.412 365.169 339.389 365.162C338.726 364.791 337.481 363.334 337.667 362.592C337.694 362.474 337.761 362.369 337.855 362.294C337.95 362.219 338.067 362.178 338.188 362.177C338.306 362.161 338.427 362.171 338.541 362.206C338.655 362.241 338.761 362.3 338.85 362.38C339.583 363.007 339.627 364.932 339.627 365.029C339.631 365.058 339.626 365.088 339.611 365.113C339.597 365.139 339.575 365.159 339.548 365.17C339.518 365.176 339.487 365.173 339.459 365.162ZM338.276 362.468H338.214C338.011 362.468 337.985 362.583 337.976 362.627C337.87 363.06 338.656 364.164 339.309 364.685C339.306 363.939 339.075 363.212 338.647 362.601C338.544 362.511 338.412 362.464 338.276 362.468Z" fill="#3083DC"/>
<path d="M314.301 364.296C313.76 364.485 313.172 364.485 312.632 364.296C312.509 364.23 312.405 364.133 312.329 364.016C312.254 363.899 312.209 363.764 312.199 363.625C312.188 363.538 312.199 363.449 312.231 363.367C312.264 363.285 312.317 363.213 312.384 363.157C313.091 362.521 315.979 363.157 316.305 363.281C316.336 363.289 316.364 363.307 316.383 363.333C316.402 363.358 316.412 363.39 316.411 363.422C316.413 363.455 316.404 363.488 316.387 363.516C316.369 363.544 316.344 363.567 316.314 363.581C315.664 363.874 314.99 364.114 314.301 364.296ZM312.861 363.245C312.76 363.266 312.666 363.311 312.588 363.378C312.559 363.399 312.538 363.427 312.525 363.46C312.513 363.493 312.51 363.529 312.517 363.563C312.523 363.656 312.552 363.746 312.601 363.824C312.65 363.903 312.719 363.968 312.799 364.014C313.268 364.261 314.354 364.067 315.758 363.475C314.812 363.236 313.833 363.159 312.861 363.245Z" fill="#3083DC"/>
<path d="M316.288 363.581H316.217C315.334 363.422 313.568 362.406 313.515 361.647C313.515 361.47 313.594 361.223 314.018 361.082C314.161 361.031 314.313 361.009 314.465 361.018C314.617 361.027 314.765 361.067 314.901 361.135C315.855 361.603 316.358 363.298 316.385 363.378C316.391 363.404 316.39 363.432 316.382 363.459C316.375 363.485 316.36 363.509 316.341 363.528C316.327 363.55 316.309 363.568 316.288 363.581ZM314.195 361.347H314.106C313.833 361.444 313.833 361.559 313.833 361.594C313.833 362.053 315.113 362.892 316.005 363.175C315.8 362.465 315.365 361.844 314.769 361.409C314.591 361.318 314.387 361.296 314.195 361.347Z" fill="#3083DC"/>
<path d="M303.58 179.488L294.37 183.727L293.301 186.376L296.701 188.663C296.701 188.663 303.059 187.974 304.87 183.886L303.58 179.488Z" fill="#E58A7B"/>
<path d="M303.969 184.989C303.763 183.219 303.179 181.514 302.256 179.991L303.713 178.896C304.809 180.651 305.508 182.625 305.762 184.68L303.969 184.989Z" fill="#263238"/>
<path d="M305.541 180.743C305.735 181.049 305.831 181.408 305.815 181.771C305.798 182.133 305.67 182.482 305.449 182.769C305.227 183.057 304.922 183.269 304.576 183.377C304.23 183.485 303.858 183.484 303.513 183.373C303.167 183.263 302.864 183.048 302.644 182.759C302.425 182.47 302.299 182.121 302.285 181.758C302.272 181.395 302.37 181.037 302.567 180.732C302.764 180.428 303.05 180.191 303.386 180.054C303.763 179.862 304.202 179.827 304.605 179.955C305.009 180.084 305.345 180.368 305.541 180.743Z" fill="#263238"/>
<path d="M288.144 187.153L289.372 188.389L297.637 184.857L294.37 183.727L288.144 187.153Z" fill="#E58A7B"/>
<path opacity="0.2" d="M323.635 348.561C323.688 348.561 324.889 351.934 324.889 351.934L312.667 357.074L310.742 353.488L323.635 348.561Z" fill="black"/>
<path opacity="0.2" d="M348.617 352.844C348.67 352.844 349.023 356.244 349.023 356.244H335.636L334.682 352.34L348.617 352.844Z" fill="black"/>
<path d="M346.55 144.227C348.979 152.06 339.486 162.772 339.486 162.772L326.372 157.42C327.927 152.893 329.719 148.451 331.741 144.113C335.768 135.432 344.095 136.324 346.55 144.227Z" fill="#3083DC"/>
<path opacity="0.2" d="M346.55 144.227C348.979 152.06 339.486 162.772 339.486 162.772L326.372 157.42C327.927 152.893 329.719 148.451 331.741 144.113C335.768 135.432 344.095 136.324 346.55 144.227Z" fill="black"/>
<path d="M216.245 65.75H210.602V66.6596H216.245V65.75Z" fill="#3083DC"/>
<path d="M289.291 101.748L288.608 116.904L289.516 116.944L290.199 101.789L289.291 101.748Z" fill="#3083DC"/>
<path d="M287.535 69.8281H183.333L173.637 286.815H277.839L287.535 69.8281Z" fill="#3083DC"/>
<path opacity="0.56" d="M284.427 72.8145H180.225L170.529 289.802H274.731L284.427 72.8145Z" fill="#FAFAFA"/>
<path opacity="0.07" d="M281.318 75.7891H177.117L167.412 292.776H271.613L281.318 75.7891Z" fill="#3083DC"/>
<path d="M269.459 170.428H180.516L179.775 187.03H268.717L269.459 170.428Z" fill="white"/>
<path d="M229.429 158.312H181.055L180.728 165.74H229.103L229.429 158.312Z" fill="#3083DC"/>
<path d="M267.454 215.234H178.512L177.77 231.835H266.712L267.454 215.234Z" fill="white"/>
<path opacity="0.47" d="M251.144 254.258H191.334L190.442 274.154H250.252L251.144 254.258Z" fill="#3083DC"/>
<path d="M247.144 277.244H187.334C187.308 277.25 187.28 277.25 187.254 277.244C187.245 277.218 187.245 277.19 187.254 277.164L188.137 257.26C188.137 257.246 188.14 257.233 188.145 257.22C188.151 257.208 188.159 257.197 188.169 257.188C188.179 257.179 188.19 257.172 188.203 257.167C188.216 257.163 188.23 257.161 188.243 257.163H248.053C248.064 257.157 248.076 257.154 248.089 257.154C248.101 257.154 248.113 257.157 248.124 257.163C248.13 257.173 248.133 257.186 248.133 257.198C248.133 257.21 248.13 257.223 248.124 257.233L247.258 277.182C247.248 277.202 247.231 277.219 247.211 277.231C247.19 277.242 247.167 277.246 247.144 277.244ZM187.44 277.032H247.038L247.921 257.339H188.323L187.44 277.032Z" fill="white"/>
<path d="M218.983 203.119H179.05L178.724 210.554H218.647L218.983 203.119Z" fill="#3083DC"/>
<path d="M250.005 116.799C249.776 121.631 248.058 126.273 245.086 130.089C242.886 132.972 240.054 135.312 236.809 136.93C233.564 138.548 229.991 139.401 226.365 139.423C223.435 139.446 220.531 138.868 217.832 137.726C215.134 136.583 212.698 134.9 210.674 132.781C208.651 130.661 207.083 128.15 206.066 125.401C205.05 122.653 204.607 119.725 204.765 116.799C205.076 110.727 207.694 105.003 212.085 100.798C216.476 96.5923 222.308 94.2231 228.387 94.1748C231.32 94.1474 234.227 94.7217 236.929 95.8622C239.63 97.0026 242.07 98.6849 244.096 100.806C246.122 102.926 247.691 105.439 248.708 108.19C249.724 110.941 250.165 113.871 250.005 116.799Z" fill="white"/>
<path d="M252.133 98.9094C252.075 100.194 251.618 101.429 250.826 102.442C250.24 103.207 249.486 103.829 248.623 104.259C247.76 104.689 246.81 104.916 245.846 104.923C244.911 104.929 243.99 104.706 243.162 104.273C242.333 103.841 241.624 103.212 241.095 102.442C240.394 101.401 240.047 100.163 240.106 98.9094C240.191 97.2972 240.888 95.7784 242.055 94.6626C243.221 93.5468 244.77 92.918 246.384 92.9045C247.163 92.8974 247.935 93.0498 248.653 93.3524C249.37 93.655 250.018 94.1014 250.557 94.6639C251.096 95.2265 251.513 95.8934 251.784 96.6236C252.055 97.3537 252.174 98.1316 252.133 98.9094Z" fill="#3083DC"/>
<path d="M190.098 178.729C190.055 179.44 189.745 180.109 189.228 180.601C188.712 181.093 188.029 181.37 187.316 181.378C186.972 181.382 186.63 181.316 186.313 181.182C185.995 181.049 185.709 180.853 185.47 180.604C185.232 180.356 185.047 180.061 184.927 179.739C184.807 179.416 184.755 179.072 184.773 178.729C184.811 178.016 185.12 177.344 185.637 176.852C186.154 176.359 186.84 176.083 187.554 176.08C187.898 176.077 188.239 176.144 188.556 176.278C188.873 176.411 189.159 176.608 189.397 176.856C189.635 177.104 189.82 177.398 189.94 177.72C190.061 178.042 190.114 178.385 190.098 178.729Z" fill="#263238"/>
<path d="M202.001 178.729C201.961 179.441 201.651 180.111 201.134 180.603C200.618 181.095 199.933 181.372 199.22 181.378C198.876 181.381 198.536 181.313 198.219 181.18C197.903 181.046 197.617 180.849 197.38 180.601C197.143 180.353 196.958 180.059 196.839 179.737C196.719 179.415 196.667 179.072 196.685 178.729C196.723 178.017 197.032 177.347 197.547 176.855C198.062 176.362 198.746 176.085 199.458 176.08C199.802 176.075 200.144 176.142 200.461 176.275C200.778 176.408 201.065 176.605 201.304 176.853C201.542 177.101 201.727 177.396 201.847 177.719C201.967 178.041 202.019 178.385 202.001 178.729Z" fill="#263238"/>
<path d="M213.914 178.729C213.873 179.441 213.563 180.111 213.047 180.603C212.53 181.095 211.846 181.372 211.132 181.378C210.788 181.381 210.448 181.313 210.131 181.18C209.814 181.046 209.528 180.85 209.29 180.601C209.051 180.353 208.867 180.059 208.746 179.737C208.626 179.415 208.572 179.072 208.589 178.729C208.629 178.016 208.939 177.346 209.456 176.854C209.973 176.362 210.657 176.085 211.371 176.08C211.715 176.075 212.056 176.142 212.374 176.275C212.691 176.408 212.978 176.605 213.216 176.853C213.455 177.101 213.639 177.396 213.759 177.719C213.879 178.041 213.932 178.385 213.914 178.729Z" fill="#263238"/>
<path d="M188.093 223.537C188.051 224.248 187.74 224.917 187.224 225.409C186.708 225.9 186.024 226.178 185.311 226.186C184.968 226.189 184.627 226.121 184.31 225.988C183.993 225.854 183.707 225.657 183.469 225.409C183.231 225.161 183.046 224.867 182.925 224.545C182.805 224.223 182.751 223.88 182.768 223.537C182.808 222.824 183.118 222.154 183.635 221.662C184.152 221.17 184.836 220.893 185.55 220.887C185.894 220.884 186.234 220.952 186.551 221.085C186.868 221.219 187.154 221.416 187.392 221.664C187.63 221.912 187.815 222.206 187.936 222.528C188.056 222.85 188.11 223.193 188.093 223.537Z" fill="#263238"/>
<path d="M199.997 223.537C199.956 224.247 199.648 224.916 199.133 225.408C198.618 225.9 197.936 226.178 197.224 226.186C196.88 226.19 196.538 226.123 196.221 225.99C195.904 225.857 195.617 225.66 195.378 225.412C195.14 225.164 194.955 224.869 194.835 224.547C194.715 224.224 194.663 223.88 194.681 223.537C194.721 222.824 195.031 222.154 195.548 221.662C196.064 221.17 196.749 220.893 197.462 220.887C197.806 220.884 198.146 220.952 198.463 221.085C198.779 221.219 199.065 221.416 199.302 221.664C199.539 221.912 199.724 222.207 199.843 222.529C199.963 222.851 200.015 223.194 199.997 223.537Z" fill="#263238"/>
<path d="M211.936 223.537C211.895 224.249 211.585 224.919 211.069 225.411C210.552 225.903 209.868 226.18 209.154 226.186C208.811 226.187 208.47 226.119 208.154 225.985C207.838 225.851 207.552 225.654 207.314 225.407C207.077 225.159 206.892 224.865 206.771 224.544C206.65 224.222 206.595 223.88 206.611 223.537C206.653 222.825 206.964 222.156 207.48 221.664C207.996 221.173 208.68 220.895 209.393 220.887C209.737 220.883 210.078 220.95 210.395 221.083C210.713 221.216 211 221.413 211.238 221.661C211.476 221.909 211.661 222.204 211.781 222.526C211.901 222.849 211.954 223.193 211.936 223.537Z" fill="#263238"/>
<path d="M223.822 223.537C223.779 224.248 223.469 224.917 222.953 225.409C222.436 225.9 221.753 226.178 221.04 226.186C220.697 226.187 220.357 226.119 220.04 225.985C219.724 225.851 219.438 225.654 219.201 225.406C218.963 225.159 218.778 224.865 218.657 224.544C218.536 224.222 218.481 223.88 218.497 223.537C218.539 222.825 218.85 222.156 219.366 221.664C219.882 221.173 220.566 220.895 221.279 220.887C221.622 220.884 221.963 220.952 222.28 221.085C222.597 221.219 222.883 221.416 223.121 221.664C223.359 221.912 223.544 222.206 223.665 222.528C223.785 222.85 223.839 223.193 223.822 223.537Z" fill="#263238"/>
<path d="M235.779 223.537C235.736 224.248 235.426 224.917 234.909 225.409C234.393 225.9 233.71 226.178 232.997 226.186C232.653 226.19 232.311 226.123 231.994 225.99C231.677 225.857 231.39 225.66 231.151 225.412C230.913 225.164 230.728 224.869 230.608 224.547C230.488 224.224 230.436 223.88 230.454 223.537C230.494 222.824 230.804 222.154 231.321 221.662C231.837 221.17 232.522 220.893 233.235 220.887C233.579 220.884 233.92 220.952 234.237 221.085C234.554 221.219 234.84 221.416 235.078 221.664C235.316 221.912 235.501 222.206 235.621 222.528C235.742 222.85 235.795 223.193 235.779 223.537Z" fill="#263238"/>
<path d="M233.971 115.62C237.667 112.006 237.864 106.212 234.409 102.68C230.955 99.1481 225.159 99.2148 221.463 102.829C217.766 106.443 217.57 112.237 221.025 115.769C224.479 119.301 230.275 119.234 233.971 115.62Z" fill="#3083DC"/>
<path d="M245.086 130.089C242.886 132.972 240.054 135.312 236.809 136.93C233.564 138.548 229.991 139.401 226.365 139.424C222.849 139.453 219.379 138.617 216.262 136.99C213.145 135.362 210.477 132.992 208.492 130.089C212.784 125.815 219.574 123.025 227.098 123.025C234.622 123.025 241.174 125.815 245.086 130.089Z" fill="#3083DC"/>
<path opacity="0.1" d="M233.971 115.62C237.667 112.006 237.864 106.212 234.409 102.68C230.955 99.1481 225.159 99.2148 221.463 102.829C217.766 106.443 217.57 112.237 221.025 115.769C224.479 119.301 230.275 119.234 233.971 115.62Z" fill="white"/>
<path opacity="0.1" d="M245.086 130.089C242.886 132.972 240.054 135.312 236.809 136.93C233.564 138.548 229.991 139.401 226.365 139.424C222.849 139.453 219.379 138.617 216.262 136.99C213.145 135.362 210.477 132.992 208.492 130.089C212.784 125.815 219.574 123.025 227.098 123.025C234.622 123.025 241.174 125.815 245.086 130.089Z" fill="white"/>
<path d="M115.161 191.029C114.322 192.866 113.439 194.888 112.67 196.848C111.902 198.809 111.116 200.831 110.436 202.844C109.048 206.812 107.99 210.888 107.275 215.031L107.081 216.329C107.062 216.551 107.083 216.776 107.142 216.991C107.351 217.723 107.679 218.415 108.114 219.04C109.248 220.656 110.563 222.138 112.035 223.455C113.586 224.898 115.213 226.257 116.909 227.526C118.605 228.833 120.388 230.105 122.146 231.305L120.494 234.405C116.298 232.577 112.315 230.294 108.617 227.597C106.644 226.158 104.863 224.472 103.319 222.581C102.403 221.455 101.689 220.179 101.208 218.81C100.929 217.955 100.786 217.061 100.784 216.161C100.784 215.949 100.784 215.64 100.784 215.49V215.057L100.873 214.174C101.379 209.573 102.346 205.035 103.76 200.628C104.449 198.455 105.182 196.292 106.021 194.181C106.86 192.071 107.725 190.005 108.794 187.859L115.161 191.029Z" fill="#E58A7B"/>
<path d="M120.901 230.759L127.144 227.598L125.528 234.45C125.528 234.45 121.245 235.651 119.258 233.567L120.901 230.759Z" fill="#E58A7B"/>
<path d="M132.857 228.719L131.197 234.388L125.528 234.45L127.144 227.598L132.857 228.719Z" fill="#E58A7B"/>
<path d="M141.67 157.969C142.004 159.193 142.469 160.377 143.057 161.501C142.885 161.696 142.664 161.841 142.417 161.92C142.169 161.999 141.905 162.01 141.653 161.952L141.67 157.969Z" fill="#DF5753"/>
<path d="M141.485 158.021C141.851 158.021 142.147 157.566 142.147 157.005C142.147 156.444 141.851 155.99 141.485 155.99C141.119 155.99 140.823 156.444 140.823 157.005C140.823 157.566 141.119 158.021 141.485 158.021Z" fill="#263238"/>
<path d="M141.291 156.025L142.633 155.645C142.633 155.645 141.979 156.687 141.291 156.025Z" fill="#263238"/>
<path d="M124.424 164.449C125.228 168.555 126.031 176.087 123.152 178.834C123.152 178.834 124.283 183.002 131.921 183.002C140.319 183.002 135.93 178.834 135.93 178.834C131.347 177.739 131.462 174.339 132.266 171.142L124.424 164.449Z" fill="#E58A7B"/>
<path d="M122.19 155.089C122.614 161.951 122.649 164.865 126.111 168.388C131.33 173.686 139.666 171.673 141.299 164.856C142.774 158.674 141.838 148.501 135.118 145.773C133.643 145.165 132.037 144.944 130.453 145.13C128.868 145.316 127.357 145.903 126.063 146.836C124.769 147.768 123.734 149.016 123.056 150.46C122.378 151.904 122.08 153.498 122.19 155.089Z" fill="#E58A7B"/>
<path d="M122.87 147.372C119.426 148.626 114.834 147.69 116.635 158.313C118.543 169.564 115.611 173.264 115.611 173.264C115.611 173.264 128.672 176.045 142.006 173.096C142.006 173.096 137.935 165.978 139.074 160.733C140.531 154.11 139.383 151.664 139.383 151.664C139.383 151.664 127.709 145.606 122.87 147.372Z" fill="#263238"/>
<path d="M137.44 158.667C137.444 159.971 137.818 161.248 138.518 162.349C139.454 163.779 140.558 163.232 140.831 161.713C141.079 160.38 140.893 158.022 139.701 157.103C138.509 156.185 137.458 157.086 137.44 158.667Z" fill="#E58A7B"/>
<path d="M119.876 148.529C118.887 145.747 123.603 141.464 133.581 143.231C143.56 144.997 143.993 153.306 143.993 153.306L141.979 150.904L142.068 153.43L131.815 155.399L119.876 148.529Z" fill="#263238"/>
<path d="M120.724 179.304C120.665 178.901 120.766 178.49 121.005 178.16C121.244 177.83 121.603 177.607 122.004 177.538C125.113 177.025 132.177 175.983 135.727 176.478C138.376 176.849 139.065 178.385 139.18 179.648C139.198 179.869 139.168 180.092 139.093 180.3C139.018 180.509 138.899 180.699 138.744 180.858C138.59 181.017 138.403 181.141 138.196 181.222C137.989 181.303 137.768 181.338 137.546 181.326L122.199 180.637C121.837 180.619 121.492 180.476 121.224 180.233C120.955 179.99 120.778 179.662 120.724 179.304Z" fill="#3083DC"/>
<path opacity="0.6" d="M120.724 179.304C120.665 178.901 120.766 178.49 121.005 178.16C121.244 177.83 121.603 177.607 122.004 177.538C125.113 177.025 132.177 175.983 135.727 176.478C138.376 176.849 139.065 178.385 139.18 179.648C139.198 179.869 139.168 180.092 139.093 180.3C139.018 180.509 138.899 180.699 138.744 180.858C138.59 181.017 138.403 181.141 138.196 181.222C137.989 181.303 137.768 181.338 137.546 181.326L122.199 180.637C121.837 180.619 121.492 180.476 121.224 180.233C120.955 179.99 120.778 179.662 120.724 179.304Z" fill="black"/>
<path d="M129.599 333.574L135.295 337.53L144.823 324.611L139.127 320.664L129.599 333.574Z" fill="#E58A7B"/>
<path d="M116.317 333.317L122.331 336.744L130.764 323.083L124.751 319.656L116.317 333.317Z" fill="#E58A7B"/>
<path d="M144.814 324.611L139.904 331.27L134.208 327.322L139.118 320.664L144.814 324.611Z" fill="#CF6F64"/>
<path d="M124.742 319.656L130.764 323.091L126.42 330.129L120.397 326.694L124.742 319.656Z" fill="#CF6F64"/>
<path d="M134.403 222.432C134.403 222.432 156.638 250.451 152.461 277.252C149.097 298.896 129.581 328.205 129.581 328.205L120.406 323.649C126.873 310.69 132.392 297.279 136.919 283.522C138.315 279.251 138.723 274.719 138.111 270.267C137.499 265.815 135.884 261.561 133.387 257.825C122.119 241.373 104.069 251.167 116.211 222.432H134.403Z" fill="#3083DC"/>
<path opacity="0.6" d="M134.403 222.432C134.403 222.432 156.638 250.451 152.461 277.252C149.097 298.896 129.581 328.205 129.581 328.205L120.406 323.649C126.873 310.69 132.392 297.279 136.919 283.522C138.315 279.251 138.723 274.719 138.111 270.267C137.499 265.815 135.884 261.561 133.387 257.825C122.119 241.373 104.069 251.167 116.211 222.432H134.403Z" fill="black"/>
<path opacity="0.4" d="M145.309 240.43L142.076 237.215C142.076 237.471 148.337 276.123 150.095 286.985C151.132 283.812 151.926 280.565 152.47 277.271C154.537 264.122 150.218 250.691 145.309 240.43Z" fill="black"/>
<path d="M144.328 222.432C144.328 222.432 171.103 257.648 171.862 278.762C172.489 296.424 142.721 330.643 142.721 330.643L134.067 325.044C134.067 325.044 151.49 300.742 155.879 280.891C154.183 261.216 118.331 222.432 118.331 222.432H144.328Z" fill="#3083DC"/>
<path opacity="0.6" d="M144.328 222.432C144.328 222.432 171.103 257.648 171.862 278.762C172.489 296.424 142.721 330.643 142.721 330.643L134.067 325.044C134.067 325.044 151.49 300.742 155.879 280.891C154.183 261.216 118.331 222.432 118.331 222.432H144.328Z" fill="black"/>
<path d="M111.204 180.407C108.343 181.087 105.597 191.489 105.597 191.489L116.785 198.96C116.785 198.96 120.512 190.73 119.205 187.127C117.854 183.374 114.799 179.55 111.204 180.407Z" fill="#3083DC"/>
<path opacity="0.2" d="M113.394 187.109L112.617 196.178L116.777 198.969C117.925 196.383 118.775 193.675 119.311 190.897L113.394 187.109Z" fill="black"/>
<path d="M147.64 180.609C147.64 180.609 150.942 181.765 144.328 222.422H116.194C116.671 210.942 116.679 203.877 111.204 180.406C115.144 179.594 119.137 179.068 123.152 178.834C127.406 178.529 131.676 178.529 135.93 178.834C141.423 179.337 147.64 180.609 147.64 180.609Z" fill="#3083DC"/>
<path d="M150.501 187.11C151.137 188.876 151.808 190.775 152.514 192.603C153.221 194.431 153.892 196.312 154.607 198.166L156.771 203.712L157.318 205.098L157.601 205.787L157.733 206.131C157.733 206.193 157.733 206.193 157.733 206.184C157.572 205.957 157.36 205.769 157.115 205.637C156.766 205.431 156.372 205.313 155.967 205.292C155.631 205.282 155.296 205.345 154.987 205.478C154.581 205.663 154.581 205.743 154.589 205.734C154.663 205.675 154.728 205.607 154.784 205.531C155.273 204.889 155.696 204.2 156.047 203.473C156.462 202.661 156.859 201.795 157.256 200.921C158.033 199.155 158.749 197.327 159.464 195.481C160.179 193.636 160.859 191.773 161.522 189.892L163.535 184.258L166.935 185.141C166.264 189.168 165.398 193.088 164.356 197.08C163.853 199.067 163.261 201.036 162.59 203.023C162.254 204.021 161.884 205.01 161.46 206.025C161.018 207.127 160.474 208.186 159.835 209.187C159.6 209.524 159.34 209.842 159.058 210.14C158.607 210.627 158.06 211.015 157.451 211.28C156.91 211.511 156.325 211.62 155.737 211.597C155.079 211.573 154.438 211.381 153.874 211.041C153.209 210.626 152.657 210.053 152.267 209.372C152.135 209.143 152.02 208.913 151.94 208.745L151.772 208.41L151.437 207.721L150.766 206.352C149.883 204.515 149 202.661 148.231 200.798C147.463 198.934 146.651 197.045 145.891 195.146C145.132 193.247 144.452 191.349 143.807 189.3L150.501 187.11Z" fill="#E58A7B"/>
<path d="M147.64 180.61C151.022 181.413 154.828 191.41 154.828 191.41L144.77 199.966C144.77 199.966 138.262 189.069 139.577 185.475C140.946 181.731 143.224 179.559 147.64 180.61Z" fill="#3083DC"/>
<path d="M165.133 181.095L168.666 178.146L171.121 181.97L169.31 185.157C169.31 185.157 166.431 187.807 163.888 186.456C163.485 185.548 163.388 184.534 163.612 183.567C163.837 182.6 164.371 181.732 165.133 181.095Z" fill="#E58A7B"/>
<path d="M175.041 178.155L174.776 179.117L169.187 180.053L168.639 178.146L175.041 178.155Z" fill="#E58A7B"/>
<path d="M143.41 331.093L133.325 324.576L135.136 321.432L146.465 328.4L143.41 331.093Z" fill="#3083DC"/>
<path d="M126.278 336.286C125.394 336.178 124.543 335.877 123.788 335.403C123.757 335.392 123.73 335.372 123.711 335.345C123.692 335.318 123.681 335.286 123.681 335.253C123.681 335.22 123.692 335.188 123.711 335.161C123.73 335.134 123.757 335.114 123.788 335.103C124.062 335.015 126.437 334.282 127.126 334.847C127.204 334.911 127.262 334.995 127.297 335.09C127.331 335.185 127.339 335.287 127.32 335.386C127.308 335.545 127.255 335.698 127.167 335.831C127.079 335.964 126.959 336.072 126.817 336.145C126.652 336.235 126.467 336.284 126.278 336.286ZM124.292 335.315C125.395 335.88 126.278 336.083 126.702 335.871C126.795 335.82 126.872 335.746 126.928 335.657C126.984 335.567 127.015 335.465 127.02 335.359C127.02 335.218 127.02 335.156 126.941 335.121C126.57 334.82 125.245 335.05 124.274 335.315H124.292Z" fill="#263238"/>
<path d="M123.85 335.464C123.803 335.463 123.759 335.444 123.726 335.411C123.713 335.387 123.706 335.359 123.706 335.332C123.706 335.304 123.713 335.277 123.726 335.252C123.726 335.173 124.3 333.256 125.201 332.824C125.316 332.771 125.441 332.744 125.568 332.744C125.694 332.744 125.819 332.771 125.934 332.824C126.058 332.863 126.165 332.942 126.239 333.05C126.313 333.157 126.348 333.286 126.34 333.415C126.278 334.21 124.662 335.305 123.921 335.491L123.85 335.464ZM125.563 333.053C125.477 333.056 125.393 333.077 125.316 333.115C124.768 333.38 124.318 334.413 124.097 335.04C124.874 334.713 125.943 333.848 125.978 333.362C125.978 333.283 125.978 333.186 125.775 333.097C125.709 333.062 125.637 333.038 125.563 333.027V333.053Z" fill="#263238"/>
<path d="M138.88 340.1C137.882 340.1 136.495 338.82 135.736 338.034C135.717 338.007 135.706 337.974 135.706 337.941C135.706 337.908 135.717 337.875 135.736 337.848C135.753 337.82 135.778 337.797 135.808 337.781C135.837 337.766 135.87 337.758 135.904 337.76C136.257 337.76 139.321 338.219 139.754 339.085C139.8 339.162 139.824 339.251 139.824 339.341C139.824 339.431 139.8 339.519 139.754 339.597C139.689 339.732 139.591 339.848 139.469 339.934C139.347 340.021 139.205 340.075 139.056 340.091L138.88 340.1ZM136.319 338.157C137.431 339.235 138.412 339.835 138.968 339.765C139.065 339.752 139.158 339.715 139.238 339.658C139.318 339.602 139.383 339.526 139.427 339.438C139.447 339.408 139.458 339.372 139.458 339.336C139.458 339.3 139.447 339.265 139.427 339.235C139.198 338.758 137.564 338.352 136.319 338.157Z" fill="#263238"/>
<path d="M136.416 338.114C136.218 338.12 136.02 338.105 135.824 338.07C135.797 338.066 135.771 338.055 135.75 338.038C135.728 338.021 135.711 337.998 135.701 337.973C135.688 337.947 135.681 337.918 135.681 337.889C135.681 337.86 135.688 337.831 135.701 337.805C135.754 337.743 136.946 336.304 138.076 336.207C138.396 336.182 138.713 336.283 138.959 336.489C139.304 336.79 139.286 337.055 139.198 337.222C138.977 337.823 137.449 338.114 136.416 338.114ZM136.186 337.788C137.175 337.841 138.756 337.514 138.959 337.081C138.959 337.081 139.03 336.94 138.8 336.746C138.709 336.666 138.602 336.606 138.487 336.57C138.371 336.533 138.25 336.521 138.129 336.534C137.368 336.746 136.69 337.187 136.186 337.796V337.788Z" fill="#263238"/>
<path d="M124.088 334.51L116.6 332.391C116.471 332.352 116.332 332.362 116.21 332.419C116.088 332.476 115.991 332.576 115.938 332.7L113.412 338.378C113.353 338.524 113.325 338.68 113.33 338.837C113.336 338.994 113.374 339.148 113.444 339.289C113.513 339.43 113.611 339.555 113.732 339.655C113.853 339.755 113.994 339.829 114.145 339.871C116.794 340.559 118.066 340.754 121.36 341.699C123.391 342.264 126.287 343.315 129.087 344.109C131.886 344.904 132.822 342.175 131.736 341.593C126.826 338.996 126.437 337.177 125.095 335.234C124.855 334.883 124.498 334.626 124.088 334.51Z" fill="#3083DC"/>
<path d="M135.939 337.001L129.546 332.585C129.437 332.506 129.304 332.47 129.17 332.483C129.037 332.496 128.913 332.558 128.822 332.656L124.583 337.213C124.48 337.33 124.403 337.469 124.357 337.619C124.311 337.768 124.298 337.926 124.318 338.082C124.338 338.237 124.391 338.386 124.473 338.52C124.555 338.653 124.665 338.767 124.795 338.855C127.047 340.365 128.212 340.974 131.029 342.926C132.795 344.127 136.213 346.794 138.597 348.454C140.981 350.114 142.756 347.836 141.909 346.935C138.111 342.882 137.281 340.339 136.654 338.034C136.546 337.616 136.292 337.25 135.939 337.001Z" fill="#3083DC"/>
<path d="M130.756 328.789L119.232 323.058L120.424 319.932L132.734 325.972L130.756 328.789Z" fill="#3083DC"/>
<path d="M115.77 220.771L114.799 223.315C114.701 223.509 114.931 223.712 115.258 223.712H144.47C144.726 223.712 144.938 223.588 144.955 223.43L145.202 220.904C145.202 220.736 144.999 220.586 144.726 220.586H116.229C116.143 220.578 116.057 220.591 115.977 220.623C115.897 220.655 115.826 220.706 115.77 220.771Z" fill="#3083DC"/>
<path opacity="0.4" d="M115.77 220.771L114.799 223.315C114.701 223.509 114.931 223.712 115.258 223.712H144.47C144.726 223.712 144.938 223.588 144.955 223.43L145.202 220.904C145.202 220.736 144.999 220.586 144.726 220.586H116.229C116.143 220.578 116.057 220.591 115.977 220.623C115.897 220.655 115.826 220.706 115.77 220.771Z" fill="white"/>
<path d="M120.371 223.96H119.602C119.452 223.96 119.338 223.881 119.346 223.784L119.708 220.508C119.708 220.419 119.85 220.34 120 220.34H120.768C120.918 220.34 121.033 220.419 121.024 220.508L120.662 223.784C120.653 223.881 120.521 223.96 120.371 223.96Z" fill="#3083DC"/>
<path d="M138.385 223.96H137.626C137.476 223.96 137.361 223.881 137.37 223.784L137.723 220.508C137.723 220.419 137.873 220.34 138.023 220.34H138.783C138.933 220.34 139.056 220.419 139.039 220.508L138.686 223.784C138.641 223.881 138.544 223.96 138.385 223.96Z" fill="#3083DC"/>
<g style="mix-blend-mode:multiply">
<path d="M119.7 373.507C132.765 373.507 143.357 372.74 143.357 371.793C143.357 370.847 132.765 370.08 119.7 370.08C106.634 370.08 96.0422 370.847 96.0422 371.793C96.0422 372.74 106.634 373.507 119.7 373.507Z" fill="#F5F5F5"/>
</g>
<path d="M134.111 369.375C129.925 368.156 125.281 366.593 122.472 364.959C122.393 364.906 122.305 364.88 122.225 364.836V345.885H130.694C131.337 345.847 131.941 345.565 132.382 345.096C132.824 344.628 133.07 344.008 133.07 343.364C133.07 342.72 132.824 342.1 132.382 341.632C131.941 341.163 131.337 340.881 130.694 340.843H122.269V254.461H117.183V340.843H108.767C108.424 340.823 108.079 340.873 107.756 340.99C107.432 341.108 107.136 341.29 106.886 341.526C106.635 341.762 106.436 342.047 106.299 342.363C106.163 342.679 106.092 343.02 106.092 343.364C106.092 343.708 106.163 344.049 106.299 344.365C106.436 344.681 106.635 344.966 106.886 345.202C107.136 345.438 107.432 345.62 107.756 345.738C108.079 345.855 108.424 345.906 108.767 345.885H117.183V364.809C117.103 364.809 117.024 364.88 116.944 364.933C114.092 366.593 109.482 368.156 105.297 369.348C105.014 369.434 104.771 369.618 104.612 369.867C104.453 370.116 104.389 370.413 104.431 370.706C104.472 370.998 104.617 371.266 104.839 371.461C105.061 371.656 105.346 371.765 105.641 371.768H133.767C134.049 371.749 134.316 371.633 134.524 371.441C134.731 371.248 134.866 370.991 134.906 370.711C134.947 370.431 134.89 370.145 134.745 369.902C134.6 369.659 134.377 369.473 134.111 369.375Z" fill="#E0E0E0"/>
<path d="M135.409 245.664H104.008C101.481 245.664 99.4332 247.712 99.4332 250.238V259.572C99.4332 262.099 101.481 264.147 104.008 264.147H135.409C137.936 264.147 139.984 262.099 139.984 259.572V250.238C139.984 247.712 137.936 245.664 135.409 245.664Z" fill="#3083DC"/>
<path d="M103.716 264.156V265.764C103.716 267.088 105.155 268.166 106.922 268.166H132.531C134.297 268.166 135.736 267.088 135.736 265.764V264.156H103.716Z" fill="#3083DC"/>
<path opacity="0.3" d="M103.716 264.156V265.764C103.716 267.088 105.155 268.166 106.922 268.166H132.531C134.297 268.166 135.736 267.088 135.736 265.764V264.156H103.716Z" fill="white"/>
</svg>
