<svg width="442" height="434" viewBox="0 0 442 434" fill="none" xmlns="http://www.w3.org/2000/svg">
<path d="M376.369 433.129C376.369 433.274 304.601 433.398 216.1 433.398C127.599 433.398 55.8001 433.274 55.8001 433.129C55.8001 432.985 127.558 432.861 216.1 432.861C304.642 432.861 376.369 432.995 376.369 433.129Z" fill="#263238"/>
<path d="M306.441 306.606C290.473 295.454 286.855 274.753 287.486 256.139C287.589 253.038 287.248 249.752 288.726 247.034C290.204 244.315 293.656 242.445 296.436 243.747C298.741 244.832 299.743 247.519 301.035 249.741C302.759 252.701 305.285 255.112 308.322 256.697C310.296 257.731 312.745 258.351 314.699 257.276C317.386 255.798 317.696 252.108 317.675 249.008C317.675 243.24 317.641 237.48 317.572 231.727C317.386 228.638 317.7 225.539 318.502 222.549C319.463 219.614 321.602 216.896 324.527 216.069C327.452 215.242 331.101 216.948 331.762 219.965C331.876 221.244 331.907 222.528 331.855 223.81C331.938 225.102 332.537 226.518 333.746 226.911C334.956 227.303 336.217 226.404 337.147 225.495C340.33 222.394 342.5 218.353 344.516 214.364C346.531 210.374 348.505 206.271 351.399 202.871C354.293 199.471 358.293 196.773 362.768 196.515C367.243 196.256 371.904 199.006 373.02 203.346C374.137 207.687 371.604 212.121 368.886 215.645C364.785 220.877 359.95 225.489 354.531 229.34C353.473 229.917 352.629 230.819 352.123 231.913C351.451 233.98 353.404 236.047 355.44 236.698C357.745 237.463 360.246 237.225 362.675 237.515C365.104 237.804 367.687 238.858 368.607 241.132C369.868 244.295 367.222 247.602 364.628 249.772C359.419 254.113 353.504 257.528 347.141 259.87C344.867 260.697 342.48 261.431 340.64 263.022C338.8 264.614 337.705 267.394 338.811 269.575C339.917 271.755 342.759 272.448 345.146 272.004C347.534 271.559 349.652 270.278 351.926 269.42C356.174 267.818 361.652 268.107 364.328 271.776C365.158 273.04 365.683 274.479 365.862 275.98C366.041 277.481 365.87 279.003 365.362 280.427C364.328 283.26 362.736 285.857 360.68 288.064C353.911 296.152 345.116 302.297 335.193 305.872C325.344 309.283 316.218 310.213 306.43 306.627" fill="#3083DC"/>
<path d="M368.473 199.068C368.473 199.068 368.38 199.171 368.173 199.357L367.253 200.173C366.447 200.897 365.259 201.951 363.76 203.346C359.511 207.291 355.566 211.551 351.957 216.09C349.652 218.953 347.265 222.198 344.722 225.722C342.18 229.247 339.555 233.05 336.95 237.091C334.174 241.352 331.631 245.762 329.333 250.299C328.134 252.666 327.08 255.136 325.995 257.658L322.791 265.358C318.568 275.057 314.89 284.984 311.774 295.092C309.264 303.364 307.534 311.851 306.606 320.445C306.005 326.244 305.908 332.085 306.317 337.901C306.482 339.968 306.637 341.549 306.782 342.624C306.844 343.141 306.885 343.555 306.926 343.854V344.278C306.882 344.144 306.851 344.005 306.833 343.865C306.782 343.565 306.72 343.162 306.637 342.645C306.451 341.611 306.255 339.979 306.069 337.911C305.57 332.085 305.605 326.224 306.172 320.404C307.042 311.773 308.734 303.246 311.226 294.937C314.316 284.8 317.984 274.848 322.212 265.131L325.499 257.462C326.584 254.95 327.649 252.459 328.858 250.082C331.171 245.531 333.735 241.111 336.537 236.843C339.183 232.709 341.849 228.967 344.361 225.474C346.872 221.981 349.301 218.715 351.595 215.862C355.241 211.336 359.239 207.106 363.553 203.212C365.083 201.837 366.302 200.804 367.129 200.111L368.09 199.336C368.208 199.234 368.336 199.144 368.473 199.068Z" fill="#263238"/>
<path d="M328.992 250.061C328.846 249.635 328.746 249.195 328.692 248.748C328.527 247.89 328.341 246.681 328.124 245.11C327.68 242.01 327.225 237.762 326.739 233.059C326.253 228.357 325.706 224.099 325.251 221.029C325.013 219.499 324.806 218.269 324.662 217.412C324.549 216.973 324.49 216.521 324.486 216.068C324.664 216.482 324.792 216.916 324.868 217.36C325.096 218.207 325.354 219.427 325.644 220.967C326.233 224.068 326.811 228.284 327.297 232.997C327.783 237.71 328.196 241.844 328.517 245.058C328.672 246.505 328.806 247.735 328.91 248.717C328.99 249.16 329.018 249.611 328.992 250.061Z" fill="#263238"/>
<path d="M368.762 242.64C368.259 242.75 367.747 242.812 367.233 242.826C366.199 242.919 364.732 243.043 362.913 243.25C359.275 243.643 354.272 244.366 348.784 245.4C343.296 246.433 338.366 247.601 334.821 248.5C333.054 248.955 331.628 249.368 330.687 249.647C330.185 249.826 329.665 249.95 329.137 250.019C329.615 249.779 330.113 249.582 330.625 249.43C331.597 249.089 333.002 248.614 334.759 248.107C338.284 247.074 343.214 245.844 348.722 244.79C353.389 243.897 358.097 243.242 362.83 242.826C364.659 242.671 366.137 242.609 367.171 242.588C367.702 242.552 368.235 242.57 368.762 242.64Z" fill="#263238"/>
<path d="M311.732 294.215C311.622 294.065 311.532 293.902 311.464 293.729L310.781 292.293C310.192 291.042 309.397 289.192 308.446 286.929C306.523 282.381 304.074 276.015 301.469 268.945C298.865 261.876 296.467 255.509 294.648 250.91C293.759 248.678 293.025 246.848 292.478 245.484L291.899 244.006C291.819 243.836 291.763 243.655 291.734 243.469C291.844 243.618 291.934 243.782 292.002 243.955L292.684 245.391C293.263 246.642 294.069 248.492 295.02 250.755C296.943 255.303 299.392 261.669 301.996 268.739C304.601 275.808 306.999 282.174 308.818 286.774C309.707 289.006 310.44 290.835 310.978 292.2C311.216 292.789 311.412 293.233 311.567 293.678C311.647 293.848 311.703 294.029 311.732 294.215Z" fill="#263238"/>
<path d="M364.525 277.191C364.359 277.286 364.182 277.359 363.998 277.408L362.468 277.925L356.815 279.754C352.04 281.304 345.446 283.516 338.211 285.955C330.977 288.394 324.352 290.565 319.546 292.012C317.148 292.745 315.195 293.303 313.841 293.676L312.28 294.079C312.099 294.136 311.912 294.174 311.722 294.192C311.887 294.097 312.065 294.024 312.249 293.975L313.779 293.459L319.432 291.629C324.207 290.079 330.801 287.867 338.036 285.428C345.27 282.989 351.885 280.818 356.691 279.372C359.099 278.638 361.042 278.08 362.406 277.708L363.967 277.304C364.148 277.247 364.335 277.209 364.525 277.191Z" fill="#263238"/>
<path d="M342.986 26.4895L337.663 28.3912L335.379 21.4355C331.183 8.60942 317.809 1.79848 305.521 6.12896C293.232 10.4595 286.69 24.5258 290.886 37.3518L293.17 44.3075L287.827 46.2195C285.789 47.0098 284.135 48.5549 283.207 50.5336C282.279 52.5123 282.15 54.7724 282.845 56.8442L297.656 102.102C297.963 103.128 298.473 104.081 299.157 104.905C299.84 105.73 300.682 106.409 301.632 106.901C302.583 107.394 303.623 107.69 304.69 107.773C305.758 107.856 306.831 107.724 307.846 107.383L363.005 87.6535C365.07 86.8646 366.748 85.3059 367.687 83.3051C368.625 81.3043 368.752 79.0175 368.039 76.9256L353.218 31.6674C352.903 30.6447 352.384 29.696 351.694 28.8779C351.004 28.0599 350.156 27.3892 349.201 26.9059C348.247 26.4227 347.204 26.1367 346.136 26.0652C345.068 25.9936 343.997 26.1379 342.986 26.4895ZM300.942 33.7242C299.811 30.3892 300.014 26.7458 301.509 23.5572C303.004 20.3687 305.675 17.8824 308.962 16.6193C310.586 16.0639 312.304 15.8412 314.015 15.9644C315.727 16.0877 317.395 16.5544 318.922 17.3366C320.449 18.1189 321.803 19.2007 322.903 20.5176C324.002 21.8344 324.826 23.3593 325.323 25.0012L327.597 31.9568L303.216 40.6798L300.942 33.7242ZM331.948 73.887L335.731 85.4417C335.8 85.6734 335.778 85.923 335.668 86.1385C335.558 86.3541 335.37 86.5191 335.142 86.5993L329.84 88.4907C329.629 88.5492 329.403 88.5238 329.21 88.4198C329.018 88.3157 328.873 88.1411 328.806 87.9326L324.992 76.4295C322.89 76.3149 320.872 75.5606 319.209 74.2677C317.547 72.9747 316.319 71.2048 315.691 69.1948C314.792 66.5375 314.956 63.6355 316.148 61.0964C317.341 58.5573 319.469 56.578 322.088 55.5729C323.381 55.1311 324.75 54.9542 326.113 55.0526C327.476 55.151 328.805 55.5229 330.021 56.1459C331.237 56.7689 332.316 57.6304 333.192 58.679C334.068 59.7277 334.724 60.9419 335.121 62.2495C335.786 64.2913 335.841 66.4827 335.279 68.5552C334.717 70.6278 333.563 72.4915 331.958 73.918L331.948 73.887Z" fill="#3083DC"/>
<path d="M337.426 28.2674C337.426 28.412 327.556 32.1223 315.277 36.5355C302.999 40.9486 292.984 44.4937 292.932 44.3904C292.881 44.287 302.803 40.5455 315.091 36.1221C327.38 31.6986 337.374 28.133 337.426 28.2674Z" fill="#263238"/>
<path d="M349.146 30.168C349.191 30.2577 349.229 30.3511 349.26 30.4471C349.342 30.6538 349.435 30.9225 349.559 31.2532C349.828 32.0077 350.2 33.0516 350.665 34.3538L354.634 45.9086C356.288 50.8076 358.262 56.616 360.453 63.0652C361.486 66.3001 362.706 69.6694 363.843 73.2144C364.451 75.0412 364.714 76.9654 364.618 78.8885C364.53 79.8886 364.246 80.8616 363.781 81.7513C363.284 82.6382 362.621 83.4207 361.827 84.0561C360.23 85.2217 358.458 86.1253 356.577 86.7329L351.254 88.645L341.177 92.252L324.114 98.3291L312.59 102.38L309.489 103.414L308.663 103.682C308.574 103.722 308.48 103.746 308.384 103.755C308.384 103.755 308.466 103.755 308.642 103.631L309.448 103.31L312.549 102.142L324.011 97.926L341.043 91.7249L351.099 88.0869L356.422 86.1645C358.25 85.5816 359.971 84.7054 361.517 83.5704C362.255 82.9808 362.873 82.2544 363.336 81.4309C363.774 80.608 364.038 79.7039 364.111 78.7748C364.207 76.9219 363.954 75.0675 363.367 73.3074C362.251 69.7934 361.073 66.3931 360.008 63.1582C357.859 56.6987 355.874 50.8696 354.303 45.9707C352.732 41.0717 351.409 37.134 350.5 34.3642C350.066 33.0102 349.735 31.956 349.466 31.1912L349.218 30.3644C349.187 30.3018 349.163 30.2359 349.146 30.168Z" fill="#263238"/>
<path d="M320.042 15.9162C320.042 15.9162 319.494 15.6475 318.481 15.2341C317.037 14.6794 315.511 14.3719 313.965 14.3246C311.673 14.246 309.393 14.6766 307.288 15.5855C304.728 16.7172 302.54 18.5476 300.973 20.8668C299.396 23.1793 298.55 25.9122 298.545 28.7113C298.566 31.0054 298.914 33.2848 299.578 35.4809C300.115 37.3619 300.674 38.8605 301.046 39.9044C301.265 40.4346 301.445 40.9804 301.583 41.5373C301.289 41.0416 301.044 40.519 300.849 39.9767C300.425 38.9432 299.816 37.4756 299.216 35.5842C298.48 33.3651 298.08 31.0486 298.028 28.7113C298 25.8065 298.866 22.9634 300.508 20.5671C302.129 18.1632 304.407 16.2761 307.071 15.1307C309.242 14.2169 311.593 13.8138 313.944 13.9525C315.523 14.033 317.075 14.4007 318.523 15.0377C318.91 15.2163 319.283 15.4235 319.639 15.6578C319.786 15.7224 319.922 15.8096 320.042 15.9162Z" fill="#263238"/>
<path d="M320.517 56.3591C320.682 56.2591 320.855 56.1727 321.034 56.1007C321.551 55.8673 322.087 55.6771 322.636 55.5323C323.507 55.2752 324.406 55.1225 325.313 55.0775C326.547 55.0112 327.781 55.1976 328.94 55.6253C331.586 56.5555 334.015 59.253 335.214 62.86C335.789 64.7957 335.789 66.8567 335.214 68.7924C334.576 70.8933 333.434 72.806 331.886 74.3631L331.948 74.0841C333.323 77.8565 334.821 81.9492 336.372 86.2177L336.465 86.4761L336.206 86.5691L333.839 87.3546L328.672 89.0805L328.413 89.1632L328.331 88.9048C326.915 84.6261 325.364 80.6366 324.197 76.7196L324.424 76.8953C322.403 76.7274 320.477 75.9691 318.884 74.7145C317.443 73.6047 316.262 72.1938 315.422 70.5804C314.664 69.1496 314.287 67.5481 314.326 65.9295C314.374 64.2753 314.787 62.6522 315.536 61.1763C316.285 59.7004 317.35 58.4083 318.657 57.3926C319.195 56.9561 319.798 56.6072 320.445 56.3591C319.861 56.7055 319.295 57.0815 318.75 57.4856C317.315 58.6999 316.215 60.2621 315.556 62.0228C314.991 63.3505 314.726 64.787 314.782 66.229C314.837 67.6711 315.211 69.083 315.877 70.3634C316.702 71.9155 317.856 73.2697 319.256 74.3321C320.776 75.5246 322.612 76.2435 324.538 76.3992H324.713L324.765 76.5542C325.902 80.3989 327.463 84.4193 328.899 88.7188L328.558 88.5535L333.726 86.8275L336.082 86.0316L335.917 86.383C334.377 82.1146 332.889 78.0115 331.524 74.2391V74.0841L331.648 73.9601C333.151 72.4675 334.271 70.6346 334.914 68.6167C335.462 66.7651 335.462 64.7943 334.914 62.9427C333.788 59.47 331.462 56.8345 328.94 55.9043C327.824 55.4739 326.632 55.2735 325.437 55.3152C324.544 55.3357 323.656 55.457 322.791 55.677C321.251 56.0594 320.528 56.4108 320.517 56.3591Z" fill="#263238"/>
<path d="M288.571 354.778L185.332 354.302C179.37 354.269 173.665 351.872 169.469 347.636C165.274 343.399 162.931 337.671 162.956 331.709L164.052 72.904C164.064 69.9503 164.658 67.0279 165.8 64.3039C166.943 61.5799 168.61 59.1077 170.709 57.0287C172.807 54.9497 175.294 53.3046 178.029 52.1874C180.763 51.0702 183.691 50.5029 186.645 50.5179L289.873 50.9933C295.835 51.0234 301.541 53.4185 305.739 57.6527C309.936 61.8869 312.281 67.6138 312.259 73.5758L311.164 332.371C311.152 335.325 310.558 338.249 309.416 340.974C308.274 343.699 306.606 346.173 304.508 348.253C302.41 350.334 299.923 351.981 297.188 353.101C294.454 354.22 291.526 354.79 288.571 354.778Z" fill="#455A64"/>
<path d="M289.718 59.8927H269.709C269.056 59.9048 268.412 60.0454 267.814 60.3064C267.215 60.5675 266.674 60.9439 266.221 61.4142C265.768 61.8845 265.412 62.4394 265.173 63.0473C264.935 63.6552 264.819 64.3041 264.831 64.9569V68.5846C264.843 69.237 264.727 69.8854 264.488 70.4926C264.249 71.0999 263.893 71.6542 263.44 72.1236C262.987 72.5931 262.446 72.9685 261.847 73.2285C261.249 73.4885 260.605 73.6278 259.953 73.6386L220.947 73.4629C219.628 73.4277 218.376 72.8702 217.467 71.913C216.558 70.9557 216.067 69.6768 216.1 68.3572V64.7296C216.133 63.4117 215.643 62.1344 214.736 61.1774C213.83 60.2204 212.581 59.6618 211.263 59.6239H204.225L186.707 59.5413C182.54 59.5165 178.533 61.1437 175.563 64.0668C172.594 66.9899 170.904 70.9705 170.863 75.1372L169.829 327.752C169.82 329.819 170.217 331.868 171 333.781C171.782 335.695 172.933 337.435 174.388 338.903C175.843 340.372 177.573 341.539 179.479 342.339C181.385 343.139 183.43 343.555 185.497 343.565L288.519 344.04C290.588 344.05 292.638 343.652 294.552 342.869C296.467 342.086 298.209 340.934 299.678 339.478C301.147 338.022 302.316 336.291 303.116 334.384C303.916 332.476 304.333 330.43 304.343 328.362L305.376 75.747C305.401 71.5686 303.765 67.5513 300.829 64.5784C297.893 61.6054 293.897 59.92 289.718 59.8927Z" fill="white"/>
<path d="M275.859 310.337L199.254 310.006C198.458 310.006 197.817 309.138 197.827 308.084L197.91 288.044C197.91 287.01 198.561 286.121 199.357 286.121L275.962 286.473C276.403 286.549 276.797 286.793 277.063 287.153C277.329 287.513 277.445 287.962 277.388 288.406L277.316 308.425C277.316 309.489 276.654 310.347 275.859 310.337Z" fill="#3083DC"/>
<path d="M222.544 300.125C222.122 300.125 221.715 300.058 221.325 299.922C220.94 299.781 220.642 299.602 220.43 299.385L220.666 298.922C220.867 299.117 221.135 299.282 221.471 299.418C221.813 299.548 222.17 299.613 222.544 299.613C222.902 299.613 223.192 299.57 223.414 299.483C223.642 299.391 223.807 299.269 223.91 299.117C224.019 298.965 224.073 298.797 224.073 298.613C224.073 298.391 224.008 298.212 223.878 298.076C223.753 297.941 223.588 297.835 223.382 297.759C223.176 297.678 222.948 297.607 222.699 297.548C222.45 297.488 222.2 297.426 221.951 297.361C221.701 297.29 221.471 297.198 221.26 297.084C221.054 296.97 220.886 296.821 220.756 296.637C220.631 296.447 220.568 296.201 220.568 295.897C220.568 295.615 220.642 295.358 220.788 295.125C220.94 294.886 221.17 294.696 221.479 294.555C221.788 294.409 222.184 294.336 222.666 294.336C222.986 294.336 223.303 294.382 223.618 294.474C223.932 294.561 224.203 294.683 224.431 294.84L224.228 295.32C223.984 295.157 223.723 295.038 223.447 294.962C223.176 294.886 222.913 294.848 222.658 294.848C222.317 294.848 222.035 294.894 221.813 294.986C221.59 295.079 221.425 295.203 221.317 295.36C221.214 295.512 221.162 295.686 221.162 295.881C221.162 296.103 221.224 296.282 221.349 296.418C221.479 296.553 221.647 296.659 221.853 296.735C222.065 296.811 222.295 296.878 222.544 296.938C222.794 296.998 223.04 297.063 223.284 297.133C223.534 297.204 223.761 297.296 223.967 297.41C224.179 297.518 224.347 297.664 224.472 297.849C224.602 298.033 224.667 298.274 224.667 298.572C224.667 298.849 224.591 299.106 224.439 299.345C224.287 299.578 224.054 299.768 223.74 299.914C223.431 300.055 223.032 300.125 222.544 300.125ZM225.978 300.077V294.385H226.579V300.077H225.978ZM228.431 300.077V294.385H228.927L232.855 299.329H232.595V294.385H233.188V300.077H232.692L228.773 295.133H229.033V300.077H228.431ZM237.542 300.125C237.109 300.125 236.707 300.055 236.339 299.914C235.976 299.768 235.659 299.564 235.388 299.304C235.122 299.044 234.913 298.738 234.761 298.385C234.615 298.033 234.542 297.648 234.542 297.231C234.542 296.813 234.615 296.428 234.761 296.076C234.913 295.724 235.125 295.417 235.396 295.157C235.667 294.897 235.984 294.696 236.347 294.555C236.716 294.409 237.117 294.336 237.55 294.336C237.984 294.336 238.38 294.404 238.738 294.539C239.101 294.675 239.41 294.881 239.665 295.157L239.291 295.539C239.052 295.301 238.789 295.13 238.502 295.027C238.214 294.924 237.906 294.873 237.575 294.873C237.222 294.873 236.897 294.932 236.599 295.052C236.306 295.165 236.049 295.331 235.827 295.548C235.61 295.759 235.439 296.008 235.314 296.296C235.195 296.577 235.135 296.889 235.135 297.231C235.135 297.567 235.195 297.878 235.314 298.166C235.439 298.453 235.61 298.705 235.827 298.922C236.049 299.133 236.306 299.299 236.599 299.418C236.897 299.532 237.22 299.589 237.567 299.589C237.892 299.589 238.198 299.54 238.486 299.442C238.778 299.345 239.047 299.179 239.291 298.946L239.632 299.402C239.361 299.64 239.044 299.822 238.681 299.947C238.317 300.066 237.938 300.125 237.542 300.125ZM239.055 299.329V297.231H239.632V299.402L239.055 299.329ZM245.756 300.125C245.03 300.125 244.458 299.917 244.04 299.499C243.623 299.082 243.414 298.464 243.414 297.645V294.385H244.016V297.621C244.016 298.293 244.168 298.789 244.471 299.109C244.775 299.429 245.203 299.589 245.756 299.589C246.315 299.589 246.745 299.429 247.049 299.109C247.353 298.789 247.504 298.293 247.504 297.621V294.385H248.09V297.645C248.09 298.464 247.881 299.082 247.464 299.499C247.052 299.917 246.483 300.125 245.756 300.125ZM249.903 300.077V294.385H252.033C252.516 294.385 252.931 294.463 253.278 294.621C253.624 294.772 253.89 294.995 254.074 295.287C254.264 295.575 254.359 295.924 254.359 296.336C254.359 296.737 254.264 297.084 254.074 297.377C253.89 297.664 253.624 297.887 253.278 298.044C252.931 298.201 252.516 298.28 252.033 298.28H250.236L250.505 297.995V300.077H249.903ZM250.505 298.044L250.236 297.751H252.017C252.586 297.751 253.017 297.629 253.31 297.385C253.608 297.136 253.757 296.786 253.757 296.336C253.757 295.881 253.608 295.529 253.31 295.279C253.017 295.03 252.586 294.905 252.017 294.905H250.236L250.505 294.621V298.044Z" fill="#E8E8E3"/>
<path d="M214.533 134.152L187.951 134.031L187.929 138.91L214.511 139.03L214.533 134.152Z" fill="#3083DC"/>
<path opacity="0.1" d="M214.533 134.152L187.951 134.031L187.929 138.91L214.511 139.03L214.533 134.152Z" fill="black"/>
<path d="M292.457 164.103C292.666 164.082 292.871 164.034 293.067 163.959C293.353 163.847 293.602 163.657 293.784 163.41C293.967 163.163 294.077 162.87 294.1 162.563C294.1 160.92 294.1 158.522 294.1 155.442C294.1 153.902 294.1 152.176 294.1 150.275C294.1 149.81 294.1 149.324 294.1 148.838C294.168 148.367 294.065 147.887 293.811 147.484C293.669 147.291 293.484 147.134 293.27 147.024C293.057 146.915 292.821 146.857 292.581 146.854H290.969H276.034L189.59 146.533C189.369 146.53 189.15 146.579 188.952 146.678C188.754 146.777 188.583 146.923 188.453 147.102C188.204 147.506 188.108 147.987 188.184 148.456C188.184 149.489 188.184 150.523 188.184 151.556C188.184 153.623 188.184 155.69 188.184 157.757C188.184 158.791 188.184 159.825 188.184 160.858C188.142 161.339 188.142 161.824 188.184 162.305C188.239 162.511 188.34 162.703 188.479 162.864C188.619 163.025 188.794 163.152 188.991 163.235C189.194 163.316 189.412 163.355 189.631 163.349H194.892L217.847 163.473L256.707 163.711L282.907 163.917L290.028 164H291.878C292.302 164 292.509 164 292.509 164H291.878H290.028H282.907H256.707L217.847 163.876L194.892 163.783H189.631C189.342 163.795 189.053 163.745 188.784 163.638C188.512 163.522 188.27 163.345 188.076 163.121C187.883 162.898 187.743 162.632 187.668 162.346C187.608 162.075 187.587 161.797 187.606 161.52V160.755C187.606 159.721 187.606 158.688 187.606 157.654C187.606 155.587 187.606 153.52 187.606 151.453C187.606 150.419 187.606 149.386 187.606 148.352C187.586 148.077 187.586 147.801 187.606 147.526C187.644 147.222 187.762 146.933 187.947 146.688C188.125 146.439 188.361 146.236 188.635 146.098C188.908 145.959 189.211 145.889 189.518 145.893L275.962 146.368L290.896 146.471H292.509C292.793 146.472 293.073 146.54 293.324 146.672C293.576 146.803 293.793 146.993 293.956 147.226C294.247 147.675 294.365 148.215 294.286 148.745C294.286 149.231 294.286 149.717 294.286 150.182C294.286 152.063 294.286 153.789 294.286 155.349C294.286 158.45 294.214 160.827 294.193 162.481C294.168 162.799 294.052 163.103 293.86 163.357C293.668 163.612 293.407 163.806 293.108 163.917C292.913 164.039 292.687 164.103 292.457 164.103Z" fill="#E0E0E0"/>
<path d="M244.553 151.723H195.936V156.281H244.553V151.723Z" fill="#3083DC"/>
<path opacity="0.2" d="M244.553 151.723H195.936V156.281H244.553V151.723Z" fill="white"/>
<path d="M214.352 178.653L187.77 178.533L187.748 183.411L214.33 183.531L214.352 178.653Z" fill="#3083DC"/>
<path opacity="0.1" d="M214.352 178.653L187.77 178.533L187.748 183.411L214.33 183.531L214.352 178.653Z" fill="black"/>
<path d="M291.785 208.607C291.994 208.581 292.201 208.543 292.405 208.493C292.694 208.401 292.96 208.249 293.184 208.045C293.409 207.842 293.587 207.593 293.708 207.315C293.87 206.898 293.934 206.449 293.894 206.002C293.894 205.506 293.894 204.969 293.894 204.37C293.894 203.171 293.894 201.806 293.894 200.235V193.673C293.943 193.197 293.838 192.719 293.594 192.308C293.339 191.887 292.938 191.574 292.467 191.43C291.953 191.338 291.428 191.31 290.907 191.347H276.034L189.89 191.027C189.427 191.028 188.979 191.197 188.631 191.503C188.284 191.809 188.059 192.231 187.999 192.691C187.999 193.673 187.999 194.758 187.999 195.791C187.999 197.858 187.999 199.925 187.999 201.992C187.999 203.026 187.999 204.059 187.999 205.093C187.96 205.576 187.981 206.062 188.061 206.54C188.19 206.959 188.455 207.323 188.815 207.573C189.197 207.816 189.645 207.931 190.097 207.904H191.533H194.52L217.392 208.018L256.118 208.256L282.225 208.462L289.325 208.545H282.225H256.118L217.371 208.504L194.499 208.421H190.004C189.445 208.454 188.89 208.305 188.422 207.997C187.952 207.671 187.609 207.193 187.451 206.643C187.358 206.118 187.33 205.584 187.368 205.052C187.368 204.018 187.368 202.985 187.368 201.951C187.368 199.884 187.368 197.817 187.368 195.75C187.368 194.716 187.368 193.683 187.368 192.649C187.443 192.058 187.732 191.515 188.179 191.121C188.626 190.728 189.201 190.51 189.797 190.51L275.941 190.985L290.814 191.099C291.368 191.065 291.923 191.103 292.467 191.213C293.004 191.388 293.457 191.756 293.739 192.246C294.006 192.701 294.122 193.23 294.069 193.755C294.069 194.241 294.069 194.716 294.069 195.192C294.069 197.062 294.069 198.778 294.069 200.359C294.069 201.941 294.069 203.274 294.069 204.494C294.069 205.083 294.069 205.63 294.069 206.137C294.107 206.599 294.032 207.063 293.852 207.491C293.718 207.776 293.524 208.029 293.283 208.232C293.042 208.435 292.761 208.584 292.457 208.669C292.231 208.688 292.004 208.667 291.785 208.607Z" fill="#E0E0E0"/>
<path d="M214.152 225.089L187.57 224.969L187.548 229.847L214.13 229.967L214.152 225.089Z" fill="#3083DC"/>
<path opacity="0.1" d="M214.152 225.089L187.57 224.969L187.548 229.847L214.13 229.967L214.152 225.089Z" fill="black"/>
<path d="M291.578 255.023C291.787 254.998 291.995 254.96 292.199 254.909C292.486 254.818 292.751 254.666 292.975 254.465C293.2 254.264 293.379 254.017 293.501 253.741C293.663 253.324 293.727 252.875 293.687 252.429C293.687 251.922 293.687 251.395 293.687 250.785C293.687 249.597 293.687 248.222 293.687 246.651V240.088C293.736 239.613 293.631 239.135 293.387 238.724C293.126 238.31 292.727 238.003 292.261 237.856C291.746 237.76 291.222 237.729 290.7 237.763H275.828L189.683 237.442C189.22 237.443 188.773 237.613 188.425 237.919C188.077 238.225 187.852 238.647 187.792 239.106C187.792 240.14 187.792 241.173 187.792 242.207C187.792 244.274 187.792 246.341 187.792 248.408C187.792 249.442 187.792 250.475 187.792 251.509C187.753 251.988 187.774 252.471 187.854 252.945C187.978 253.367 188.244 253.732 188.608 253.979C188.988 254.227 189.438 254.343 189.89 254.309H194.386L217.258 254.434L255.984 254.671L282.091 254.878L289.191 254.961H282.091H255.984L217.258 254.847L194.386 254.754H189.89C189.33 254.792 188.774 254.643 188.309 254.33C187.838 254.004 187.495 253.526 187.337 252.976C187.244 252.451 187.217 251.917 187.254 251.385C187.254 250.351 187.254 249.318 187.254 248.284C187.254 246.217 187.254 244.15 187.254 242.083C187.254 241.049 187.254 240.016 187.254 238.931C187.327 238.341 187.614 237.797 188.059 237.403C188.504 237.01 189.078 236.792 189.673 236.791L275.817 237.267L290.69 237.38C291.243 237.346 291.799 237.385 292.343 237.494C292.88 237.669 293.333 238.038 293.615 238.528C293.882 238.983 293.998 239.511 293.945 240.037C293.945 240.522 293.945 241.008 293.945 241.473C293.945 243.344 293.945 245.059 293.945 246.641C293.945 248.222 293.945 249.555 293.945 250.775C293.945 251.364 293.945 251.912 293.945 252.418C293.985 252.88 293.91 253.345 293.728 253.772C293.594 254.057 293.4 254.31 293.159 254.513C292.918 254.717 292.637 254.866 292.333 254.95C292.091 255.033 291.832 255.058 291.578 255.023Z" fill="#E0E0E0"/>
<path d="M243.515 197.514L194.899 197.293L194.878 201.851L243.495 202.072L243.515 197.514Z" fill="#3083DC"/>
<path opacity="0.2" d="M243.515 197.514L194.899 197.293L194.878 201.851L243.495 202.072L243.515 197.514Z" fill="white"/>
<path d="M199.295 246.589C199.264 247.005 199.113 247.402 198.858 247.733C198.604 248.063 198.258 248.311 197.864 248.447C197.47 248.582 197.044 248.599 196.641 248.495C196.237 248.391 195.873 248.171 195.593 247.862C195.313 247.553 195.13 247.168 195.067 246.756C195.004 246.344 195.063 245.923 195.237 245.544C195.411 245.165 195.693 244.846 196.046 244.626C196.4 244.405 196.811 244.294 197.228 244.305C197.804 244.337 198.344 244.595 198.731 245.022C199.117 245.45 199.32 246.013 199.295 246.589Z" fill="#3083DC"/>
<path d="M205.878 246.621C205.899 246.912 205.859 247.205 205.761 247.48C205.664 247.756 205.511 248.008 205.312 248.221C205.112 248.435 204.871 248.605 204.603 248.722C204.336 248.838 204.047 248.898 203.755 248.898C203.462 248.898 203.174 248.838 202.906 248.722C202.638 248.605 202.397 248.435 202.198 248.221C201.998 248.008 201.845 247.756 201.748 247.48C201.65 247.205 201.61 246.912 201.631 246.621C201.61 246.33 201.65 246.037 201.748 245.762C201.845 245.487 201.998 245.234 202.198 245.021C202.397 244.807 202.638 244.637 202.906 244.52C203.174 244.404 203.462 244.344 203.755 244.344C204.047 244.344 204.336 244.404 204.603 244.52C204.871 244.637 205.112 244.807 205.312 245.021C205.511 245.234 205.664 245.487 205.761 245.762C205.859 246.037 205.899 246.33 205.878 246.621Z" fill="#3083DC"/>
<path d="M212.472 246.652C212.442 247.068 212.29 247.465 212.036 247.796C211.781 248.126 211.435 248.374 211.041 248.51C210.647 248.645 210.222 248.662 209.818 248.558C209.414 248.454 209.05 248.234 208.77 247.925C208.491 247.616 208.308 247.231 208.245 246.819C208.181 246.407 208.24 245.986 208.415 245.607C208.589 245.228 208.87 244.909 209.224 244.689C209.578 244.468 209.989 244.357 210.405 244.368C210.98 244.403 211.519 244.661 211.905 245.088C212.291 245.515 212.495 246.077 212.472 246.652Z" fill="#3083DC"/>
<path d="M219.056 246.681C219.025 247.097 218.874 247.494 218.619 247.825C218.365 248.155 218.019 248.403 217.625 248.539C217.231 248.674 216.805 248.691 216.402 248.587C215.998 248.483 215.634 248.263 215.354 247.954C215.074 247.645 214.891 247.26 214.828 246.848C214.765 246.436 214.824 246.015 214.998 245.636C215.172 245.257 215.454 244.938 215.808 244.718C216.161 244.498 216.572 244.386 216.989 244.397C217.564 244.432 218.102 244.69 218.488 245.117C218.875 245.544 219.079 246.106 219.056 246.681Z" fill="#3083DC"/>
<path d="M225.64 246.702C225.611 247.118 225.461 247.517 225.207 247.849C224.954 248.18 224.609 248.43 224.215 248.567C223.821 248.704 223.395 248.723 222.99 248.62C222.586 248.517 222.221 248.297 221.94 247.988C221.659 247.68 221.476 247.295 221.412 246.883C221.348 246.47 221.406 246.048 221.58 245.669C221.754 245.29 222.036 244.97 222.39 244.749C222.744 244.529 223.155 244.417 223.572 244.428C224.145 244.463 224.682 244.72 225.068 245.145C225.454 245.569 225.659 246.128 225.64 246.702Z" fill="#3083DC"/>
<path d="M232.233 246.735C232.205 247.149 232.057 247.546 231.806 247.877C231.555 248.207 231.213 248.458 230.821 248.597C230.43 248.735 230.007 248.757 229.604 248.658C229.2 248.56 228.835 248.345 228.552 248.042C228.269 247.738 228.081 247.358 228.011 246.949C227.941 246.539 227.992 246.119 228.158 245.738C228.324 245.358 228.598 245.034 228.946 244.807C229.293 244.58 229.7 244.46 230.115 244.461C230.697 244.483 231.247 244.734 231.644 245.16C232.041 245.586 232.253 246.153 232.233 246.735Z" fill="#3083DC"/>
<path d="M238.817 246.764C238.837 247.055 238.797 247.348 238.7 247.623C238.602 247.898 238.449 248.151 238.25 248.364C238.051 248.578 237.81 248.748 237.542 248.865C237.274 248.981 236.985 249.041 236.693 249.041C236.401 249.041 236.112 248.981 235.844 248.865C235.576 248.748 235.335 248.578 235.136 248.364C234.937 248.151 234.784 247.898 234.686 247.623C234.589 247.348 234.549 247.055 234.569 246.764C234.549 246.472 234.589 246.18 234.686 245.905C234.784 245.629 234.937 245.377 235.136 245.163C235.335 244.95 235.576 244.779 235.844 244.663C236.112 244.547 236.401 244.486 236.693 244.486C236.985 244.486 237.274 244.547 237.542 244.663C237.81 244.779 238.051 244.95 238.25 245.163C238.449 245.377 238.602 245.629 238.7 245.905C238.797 246.18 238.837 246.472 238.817 246.764Z" fill="#3083DC"/>
<path d="M245.401 246.795C245.372 247.209 245.224 247.606 244.973 247.937C244.722 248.267 244.38 248.518 243.989 248.657C243.597 248.795 243.174 248.817 242.771 248.718C242.367 248.62 242.002 248.405 241.719 248.102C241.436 247.798 241.248 247.418 241.178 247.009C241.108 246.599 241.159 246.179 241.325 245.798C241.491 245.418 241.765 245.094 242.113 244.867C242.46 244.64 242.867 244.52 243.282 244.521C243.864 244.543 244.414 244.794 244.811 245.22C245.208 245.646 245.42 246.213 245.401 246.795Z" fill="#3083DC"/>
<path d="M251.984 246.827C251.956 247.243 251.805 247.642 251.552 247.974C251.299 248.305 250.954 248.555 250.559 248.692C250.165 248.829 249.74 248.848 249.335 248.745C248.931 248.642 248.565 248.422 248.285 248.113C248.004 247.805 247.82 247.42 247.756 247.008C247.692 246.595 247.751 246.173 247.925 245.794C248.099 245.415 248.38 245.095 248.734 244.874C249.089 244.654 249.5 244.542 249.917 244.553C250.49 244.588 251.027 244.845 251.413 245.27C251.799 245.694 252.004 246.253 251.984 246.827Z" fill="#3083DC"/>
<g opacity="0.2">
<path d="M199.295 246.589C199.264 247.005 199.113 247.402 198.858 247.733C198.604 248.063 198.258 248.311 197.864 248.447C197.47 248.582 197.044 248.599 196.641 248.495C196.237 248.391 195.873 248.171 195.593 247.862C195.313 247.553 195.13 247.168 195.067 246.756C195.004 246.344 195.063 245.923 195.237 245.544C195.411 245.165 195.693 244.846 196.046 244.626C196.4 244.405 196.811 244.294 197.228 244.305C197.804 244.337 198.344 244.595 198.731 245.022C199.117 245.45 199.32 246.013 199.295 246.589Z" fill="white"/>
<path d="M205.878 246.621C205.899 246.912 205.859 247.205 205.761 247.48C205.664 247.756 205.511 248.008 205.312 248.221C205.112 248.435 204.871 248.605 204.603 248.722C204.336 248.838 204.047 248.898 203.755 248.898C203.462 248.898 203.174 248.838 202.906 248.722C202.638 248.605 202.397 248.435 202.198 248.221C201.998 248.008 201.845 247.756 201.748 247.48C201.65 247.205 201.61 246.912 201.631 246.621C201.61 246.33 201.65 246.037 201.748 245.762C201.845 245.487 201.998 245.234 202.198 245.021C202.397 244.807 202.638 244.637 202.906 244.52C203.174 244.404 203.462 244.344 203.755 244.344C204.047 244.344 204.336 244.404 204.603 244.52C204.871 244.637 205.112 244.807 205.312 245.021C205.511 245.234 205.664 245.487 205.761 245.762C205.859 246.037 205.899 246.33 205.878 246.621Z" fill="white"/>
<path d="M212.472 246.652C212.442 247.068 212.29 247.465 212.036 247.796C211.781 248.126 211.435 248.374 211.041 248.51C210.647 248.645 210.222 248.662 209.818 248.558C209.414 248.454 209.05 248.234 208.77 247.925C208.491 247.616 208.308 247.231 208.245 246.819C208.181 246.407 208.24 245.986 208.415 245.607C208.589 245.228 208.87 244.909 209.224 244.689C209.578 244.468 209.989 244.357 210.405 244.368C210.98 244.403 211.519 244.661 211.905 245.088C212.291 245.515 212.495 246.077 212.472 246.652Z" fill="white"/>
<path d="M219.056 246.683C219.025 247.099 218.874 247.496 218.619 247.827C218.365 248.157 218.019 248.405 217.625 248.541C217.231 248.676 216.805 248.693 216.402 248.589C215.998 248.485 215.634 248.265 215.354 247.956C215.074 247.647 214.891 247.262 214.828 246.85C214.765 246.438 214.824 246.017 214.998 245.638C215.172 245.259 215.454 244.94 215.808 244.72C216.161 244.5 216.572 244.388 216.989 244.399C217.564 244.434 218.102 244.692 218.488 245.119C218.875 245.546 219.079 246.108 219.056 246.683Z" fill="white"/>
<path d="M225.64 246.704C225.611 247.12 225.461 247.519 225.207 247.851C224.954 248.182 224.609 248.432 224.215 248.569C223.821 248.706 223.395 248.725 222.99 248.622C222.586 248.519 222.221 248.299 221.94 247.99C221.659 247.682 221.476 247.297 221.412 246.885C221.348 246.472 221.406 246.05 221.58 245.671C221.754 245.292 222.036 244.972 222.39 244.751C222.744 244.531 223.155 244.419 223.572 244.43C224.145 244.465 224.682 244.722 225.068 245.147C225.454 245.571 225.659 246.13 225.64 246.704Z" fill="white"/>
<path d="M232.233 246.735C232.205 247.149 232.056 247.546 231.806 247.877C231.555 248.207 231.213 248.458 230.821 248.597C230.43 248.735 230.007 248.757 229.604 248.658C229.2 248.56 228.835 248.345 228.552 248.042C228.269 247.738 228.081 247.358 228.011 246.949C227.941 246.539 227.992 246.119 228.158 245.738C228.324 245.358 228.598 245.034 228.945 244.807C229.293 244.58 229.699 244.46 230.115 244.461C230.697 244.483 231.247 244.734 231.644 245.16C232.041 245.586 232.253 246.153 232.233 246.735Z" fill="white"/>
<path d="M238.817 246.766C238.837 247.057 238.797 247.35 238.7 247.625C238.602 247.9 238.449 248.153 238.25 248.366C238.051 248.58 237.81 248.75 237.542 248.867C237.274 248.983 236.985 249.043 236.693 249.043C236.401 249.043 236.112 248.983 235.844 248.867C235.576 248.75 235.335 248.58 235.136 248.366C234.937 248.153 234.784 247.9 234.686 247.625C234.589 247.35 234.549 247.057 234.569 246.766C234.549 246.474 234.589 246.182 234.686 245.907C234.784 245.631 234.937 245.379 235.136 245.165C235.335 244.952 235.576 244.781 235.844 244.665C236.112 244.549 236.401 244.488 236.693 244.488C236.985 244.488 237.274 244.549 237.542 244.665C237.81 244.781 238.051 244.952 238.25 245.165C238.449 245.379 238.602 245.631 238.7 245.907C238.797 246.182 238.837 246.474 238.817 246.766Z" fill="white"/>
<path d="M245.401 246.795C245.372 247.209 245.224 247.606 244.973 247.937C244.722 248.267 244.38 248.518 243.989 248.657C243.597 248.795 243.174 248.817 242.771 248.718C242.367 248.62 242.002 248.405 241.719 248.102C241.436 247.798 241.248 247.418 241.178 247.009C241.108 246.6 241.159 246.179 241.325 245.798C241.491 245.418 241.765 245.094 242.113 244.867C242.46 244.64 242.867 244.52 243.282 244.521C243.864 244.543 244.414 244.794 244.811 245.22C245.208 245.646 245.42 246.213 245.401 246.795Z" fill="white"/>
<path d="M251.984 246.827C251.956 247.243 251.805 247.642 251.552 247.974C251.299 248.305 250.954 248.555 250.559 248.692C250.165 248.829 249.74 248.848 249.335 248.745C248.931 248.642 248.565 248.422 248.285 248.113C248.004 247.805 247.82 247.42 247.756 247.008C247.692 246.595 247.751 246.173 247.925 245.794C248.099 245.415 248.38 245.095 248.734 244.874C249.089 244.654 249.5 244.542 249.917 244.553C250.49 244.588 251.027 244.845 251.413 245.27C251.799 245.694 252.004 246.253 251.984 246.827Z" fill="white"/>
</g>
<path d="M242.631 97.6265C243.349 97.3103 243.958 96.79 244.382 96.1303C244.807 95.4706 245.028 94.7006 245.018 93.9161C245.045 93.4062 244.968 92.8962 244.791 92.4171C244.614 91.938 244.342 91.4999 243.99 91.1295C243.639 90.7591 243.216 90.4641 242.746 90.2625C242.277 90.061 241.772 89.957 241.261 89.957C240.751 89.957 240.245 90.061 239.776 90.2625C239.307 90.4641 238.884 90.7591 238.532 91.1295C238.181 91.4999 237.908 91.938 237.732 92.4171C237.555 92.8962 237.478 93.4062 237.504 93.9161C237.489 94.7084 237.708 95.4876 238.135 96.1554C238.562 96.8231 239.177 97.3494 239.902 97.6679C234.114 98.536 234.373 104.82 234.373 104.82L248.057 104.882C248.057 104.882 248.377 98.4843 242.631 97.6265Z" fill="#3083DC"/>
<path opacity="0.1" d="M242.631 97.6265C243.349 97.3103 243.958 96.79 244.382 96.1303C244.807 95.4706 245.028 94.7006 245.018 93.9161C245.045 93.4062 244.968 92.8962 244.791 92.4171C244.614 91.938 244.342 91.4999 243.99 91.1295C243.639 90.7591 243.216 90.4641 242.746 90.2625C242.277 90.061 241.772 89.957 241.261 89.957C240.751 89.957 240.245 90.061 239.776 90.2625C239.307 90.4641 238.884 90.7591 238.532 91.1295C238.181 91.4999 237.908 91.938 237.732 92.4171C237.555 92.8962 237.478 93.4062 237.504 93.9161C237.489 94.7084 237.708 95.4876 238.135 96.1554C238.562 96.8231 239.177 97.3494 239.902 97.6679C234.114 98.536 234.373 104.82 234.373 104.82L248.057 104.882C248.057 104.882 248.377 98.4843 242.631 97.6265Z" fill="black"/>
<path d="M264.867 108.936L216.095 108.715L216.068 114.544L264.84 114.765L264.867 108.936Z" fill="#3083DC"/>
<path opacity="0.2" d="M264.867 108.936L216.095 108.715L216.068 114.544L264.84 114.765L264.867 108.936Z" fill="white"/>
<path d="M85.5657 139.145H85.0799L83.6743 139.248C82.9137 139.294 82.1572 139.394 81.4109 139.548C80.9275 139.616 80.448 139.709 79.9743 139.827L78.3723 140.271C75.6457 141.108 73.0731 142.382 70.7552 144.044C67.6928 146.266 65.1356 149.113 63.2518 152.394C62.1446 154.286 61.2636 156.302 60.6267 158.399C59.9575 160.679 59.5721 163.033 59.4795 165.407C59.4179 166.654 59.4386 167.904 59.5415 169.148C59.5415 169.778 59.7172 170.409 59.7999 171.05C59.8694 171.696 59.9904 172.335 60.1616 172.962C61.091 177.109 62.9767 180.982 65.6683 184.271C68.36 187.56 71.783 190.175 75.6645 191.906C78.4737 193.118 81.4847 193.795 84.5425 193.901C87.7007 194.075 90.862 193.621 93.8442 192.568L94.7537 192.227H94.8777L94.9811 192.289L108.014 198.903L107.631 199.234C106.236 194.914 104.893 190.728 103.59 186.708V186.553L103.704 186.439C106.866 183.254 109.213 179.355 110.546 175.07C111.754 171.153 112.106 167.022 111.58 162.957C111.111 159.344 109.95 155.856 108.159 152.684C106.615 149.959 104.623 147.513 102.267 145.449C100.324 143.816 98.1727 142.446 95.8699 141.377C94.1275 140.626 92.3129 140.054 90.4542 139.672L88.3872 139.331L86.8886 139.217L85.9791 139.155H85.669C85.7721 139.144 85.876 139.144 85.9791 139.155H86.8989L88.3975 139.217L90.4646 139.517C92.3463 139.871 94.1857 140.422 95.9526 141.16C98.2949 142.217 100.485 143.583 102.464 145.222C104.863 147.277 106.897 149.723 108.479 152.456C110.321 155.663 111.518 159.198 112.003 162.864C112.574 166.992 112.246 171.194 111.042 175.184C109.7 179.557 107.317 183.54 104.097 186.79L104.159 186.522C105.461 190.542 106.815 194.728 108.221 199.038L108.417 199.668L107.828 199.368L94.7951 192.764H95.0224L94.0923 193.105C91.0526 194.175 87.8328 194.638 84.6148 194.469C81.4912 194.35 78.4172 193.649 75.5508 192.402C70.0831 190.061 65.5341 185.991 62.6007 180.816C61.2508 178.427 60.265 175.849 59.6758 173.168C59.5145 172.525 59.3937 171.873 59.3141 171.215C59.2314 170.564 59.0971 169.923 59.0661 169.282C58.7863 165.605 59.175 161.907 60.2133 158.368C60.866 156.242 61.7717 154.202 62.9108 152.291C64.8395 148.979 67.4499 146.115 70.5692 143.889C72.9253 142.223 75.541 140.958 78.3103 140.147L79.9329 139.734C80.4105 139.623 80.8935 139.537 81.3799 139.475C82.134 139.336 82.8975 139.253 83.664 139.227L85.0799 139.176C85.2409 139.154 85.4032 139.144 85.5657 139.145Z" fill="#3083DC"/>
<path d="M91.4567 163.246H89.5447L85.4106 157.438V153.624C85.4106 153.624 82.4547 153.438 82.8061 158.43C83.1575 163.422 82.8061 162.151 82.8061 162.151C82.8061 162.151 76.5326 162.151 76.0159 162.719C75.4991 163.288 75.4681 169.344 75.3957 172.724C75.3561 173.539 75.5899 174.343 76.0599 175.01C76.5299 175.676 77.2092 176.167 77.9899 176.403C78.2087 176.464 78.4346 176.495 78.6617 176.496C80.2326 176.496 88.2218 175.225 88.2218 175.225H91.5187L91.4567 163.246Z" fill="#3083DC"/>
<path d="M96.9241 162.223L95.7459 175.287H92.48V162.492L96.9241 162.223Z" fill="#3083DC"/>
<path d="M135.878 428.18V419.342L120.034 419.229L119.899 432.592L120.881 432.665C125.253 432.944 143.123 433.358 146.058 432.448C149.324 431.435 135.878 428.18 135.878 428.18Z" fill="#3083DC"/>
<path d="M146.43 431.622C146.43 431.767 140.498 431.891 133.191 431.891C125.883 431.891 119.951 431.767 119.951 431.622C119.951 431.478 125.883 431.354 133.191 431.354C140.498 431.354 146.43 431.478 146.43 431.622Z" fill="#263238"/>
<path d="M136.157 429.989C136.022 429.917 136.157 429.452 136.477 428.956C136.798 428.46 137.232 428.253 137.335 428.356C137.438 428.46 137.221 428.852 136.911 429.276C136.601 429.7 136.291 430.062 136.157 429.989Z" fill="#263238"/>
<path d="M137.17 430.567C137.025 430.567 137.097 429.989 137.407 429.442C137.717 428.894 138.131 428.562 138.244 428.645C138.358 428.727 138.172 429.193 137.883 429.679C137.593 430.165 137.304 430.619 137.17 430.567Z" fill="#263238"/>
<path d="M124.726 431.58C124.664 431.58 124.426 431.394 124.085 431.001C123.669 430.496 123.205 430.033 122.7 429.616C122.204 429.22 121.612 428.96 120.985 428.862C120.499 428.8 120.189 428.862 120.158 428.8C120.127 428.738 120.426 428.521 120.995 428.479C121.745 428.464 122.477 428.712 123.062 429.182C123.61 429.629 124.072 430.172 124.426 430.784C124.664 431.239 124.788 431.539 124.726 431.58Z" fill="#263238"/>
<path d="M136.208 428.324C136.281 428.448 136.012 428.758 135.557 428.924C135.103 429.089 134.699 429.027 134.679 428.924C134.658 428.82 134.979 428.603 135.371 428.459C135.764 428.314 136.126 428.2 136.208 428.324Z" fill="#263238"/>
<path d="M135.96 427.467C135.96 427.622 135.547 427.746 135.009 427.756C134.472 427.766 134.048 427.642 134.059 427.498C134.069 427.353 134.493 427.218 135.009 427.208C135.526 427.198 135.94 427.322 135.96 427.467Z" fill="#263238"/>
<path d="M174.893 428.18V419.342L159.049 419.229L158.915 432.458L159.897 432.531C164.269 432.81 182.149 433.358 185.074 432.448C188.339 431.435 174.893 428.18 174.893 428.18Z" fill="#3083DC"/>
<path d="M185.446 431.642C185.446 431.787 179.523 431.911 172.206 431.911C164.889 431.911 158.977 431.787 158.977 431.642C158.977 431.497 164.899 431.373 172.206 431.373C179.513 431.373 185.446 431.497 185.446 431.642Z" fill="#263238"/>
<path d="M175.172 429.989C175.048 429.917 175.172 429.452 175.493 428.956C175.813 428.46 176.247 428.253 176.351 428.356C176.454 428.46 176.237 428.852 175.927 429.276C175.617 429.7 175.307 430.062 175.172 429.989Z" fill="#263238"/>
<path d="M176.185 430.567C176.051 430.567 176.113 429.989 176.433 429.442C176.754 428.894 177.157 428.562 177.27 428.645C177.384 428.727 177.188 429.193 176.898 429.679C176.609 430.165 176.33 430.619 176.185 430.567Z" fill="#263238"/>
<path d="M163.742 431.58C163.68 431.58 163.452 431.394 163.101 431.001C162.684 430.496 162.221 430.033 161.716 429.616C161.219 429.22 160.628 428.96 160 428.862C159.525 428.8 159.204 428.862 159.173 428.8C159.142 428.738 159.442 428.521 160.011 428.479C160.761 428.464 161.493 428.712 162.078 429.182C162.629 429.626 163.091 430.169 163.442 430.784C163.68 431.239 163.804 431.539 163.742 431.58Z" fill="#263238"/>
<path d="M175.224 428.324C175.296 428.448 175.028 428.758 174.573 428.924C174.118 429.089 173.715 429.027 173.694 428.924C173.674 428.82 173.994 428.603 174.387 428.459C174.78 428.314 175.141 428.2 175.224 428.324Z" fill="#263238"/>
<path d="M174.997 427.467C174.997 427.622 174.583 427.746 174.046 427.756C173.508 427.766 173.095 427.642 173.105 427.498C173.116 427.353 173.529 427.218 174.046 427.208C174.563 427.198 174.997 427.322 174.997 427.467Z" fill="#263238"/>
<path d="M233.267 165.768C232.853 165.345 231.83 165.551 231.83 165.551C231.933 164.956 231.933 164.348 231.83 163.753C231.644 163.174 230.342 163.288 230.342 163.288C230.282 162.8 230.282 162.308 230.342 161.82C230.352 161.712 230.329 161.604 230.276 161.509C230.222 161.415 230.14 161.339 230.042 161.293C229.426 161.042 228.764 160.922 228.099 160.942C227.303 160.373 230.528 155.857 231.727 154.41C232.926 152.963 232.709 151.836 231.644 151.836C230.91 151.836 227.148 156.177 225.991 157.634C224.833 159.092 221.764 163.143 221.66 159.908C221.557 156.673 220.255 154.234 219.438 153.821C218.622 153.407 217.754 154.379 218.198 155.278C218.589 156.3 218.832 157.371 218.922 158.461C219.034 159.33 218.995 160.211 218.808 161.066C218.465 162.657 217.999 164.219 217.413 165.737H217.33C217.33 165.737 194.778 187.369 193.145 188.909C191.688 190.294 162.377 187.266 156.497 186.646C154.498 186.353 152.48 186.215 150.461 186.232C147.908 186.346 147.453 186.708 144.911 186.739C138.49 186.81 132.084 187.373 125.749 188.423C122.881 188.911 120.201 190.177 118.003 192.083C115.805 193.99 114.173 196.463 113.285 199.234C107.363 217.734 93.9475 261.525 91.5807 286.122C89.7923 289.366 88.1777 292.702 86.7438 296.117C85.0799 300.644 85.4829 300.799 86.041 300.902C87.55 301.181 89.2656 293.057 89.9064 295.021C90.5472 296.985 86.6508 304.705 88.2321 304.933C90.2992 305.222 91.9425 296.664 92.1389 295.982C92.3352 295.3 93.3584 295.517 93.1724 296.158C92.8727 297.068 89.9684 306.71 91.9942 307.02C93.1104 307.186 93.2344 305.15 93.2344 305.15C93.2344 305.15 95.3014 295.92 96.242 296.106C97.1825 296.292 96.1799 301.739 95.7045 303.558C95.2291 305.377 95.8905 306.297 96.8621 305.852C97.5235 305.542 99.1048 300.013 99.5389 298.215C99.973 296.416 101.058 291.435 102.515 294.318C103.973 297.202 106.184 298.876 107.094 298.918C107.299 298.894 107.492 298.809 107.649 298.675C107.805 298.541 107.918 298.363 107.972 298.164C108.027 297.965 108.021 297.754 107.954 297.559C107.888 297.363 107.765 297.192 107.6 297.068C106.818 296.304 106.147 295.434 105.606 294.484C105.124 293.744 104.774 292.925 104.572 292.065C104.156 290.351 103.913 288.599 103.849 286.836L103.683 285.802C105.998 274.34 112.665 240.699 122.287 219.212L126.235 227.335L127.951 233.351L117.429 259.323L162.305 258.734L155.608 232.958L163.742 206.086C172.537 206.283 195.119 206.613 198.881 204.908C203.615 202.841 228.099 171.918 228.099 171.918C229.695 170.678 231.224 169.353 232.678 167.949C232.678 167.949 234.166 166.698 233.267 165.768Z" fill="#FFBE9D"/>
<path d="M115.455 240.13C116.757 235.685 123.444 213.713 123.444 213.713C123.444 213.713 126.731 231.624 125.863 233.784C125.064 235.633 124.121 237.416 123.041 239.117C115.455 250.661 116.447 256.439 116.447 256.439L162.284 255.043C162.388 248.635 158.595 233.732 157.809 231.355C157.024 228.978 159.638 221.195 159.638 221.195C159.638 221.195 164.806 215.935 164.62 213.227C164.522 210.794 164.221 208.375 163.721 205.992L191.626 207.026L190.748 188.112L150.667 184.102C149.272 188.04 136.653 186.107 136.653 186.107C123.031 186.562 122.183 189.063 116.52 193.466C110.856 197.869 101.482 235.654 101.482 235.654L115.455 240.13Z" fill="#3083DC"/>
<path d="M142.554 235.655C141.76 235.797 140.951 235.839 140.146 235.779C138.648 235.779 136.591 235.676 134.327 235.449C132.064 235.221 130.018 234.901 128.56 234.611C127.757 234.508 126.969 234.307 126.214 234.012C127.022 234.012 127.829 234.089 128.622 234.239C130.09 234.425 132.126 234.684 134.379 234.911C136.632 235.139 138.679 235.294 140.156 235.397C140.962 235.407 141.765 235.494 142.554 235.655Z" fill="#263238"/>
<path d="M145.696 231.758C144.902 232.147 144.061 232.435 143.195 232.616C139.072 233.699 134.817 234.204 130.555 234.114C129.673 234.143 128.791 234.06 127.93 233.866C128.8 233.756 129.678 233.712 130.555 233.732C132.178 233.68 134.41 233.567 136.87 233.277C139.33 232.988 141.521 232.574 143.071 232.244C143.932 232.014 144.81 231.851 145.696 231.758Z" fill="#263238"/>
<path d="M161.116 214.373C161.096 215.161 160.988 215.944 160.796 216.709C160.527 218.145 160.114 220.109 159.587 222.259C159.06 224.409 158.553 226.393 158.099 227.737C157.916 228.506 157.645 229.251 157.292 229.959C157.35 229.173 157.496 228.397 157.726 227.644C158.119 226.031 158.564 224.171 159.06 222.135C159.556 220.099 160.031 218.238 160.424 216.626C160.564 215.85 160.796 215.094 161.116 214.373Z" fill="#263238"/>
<path d="M115.941 237.494C113.55 237.125 111.19 236.575 108.882 235.851C106.523 235.299 104.209 234.574 101.957 233.68C104.347 234.056 106.706 234.605 109.016 235.324C111.375 235.873 113.69 236.599 115.941 237.494Z" fill="#263238"/>
<path d="M164.217 205.766C163.827 205.833 163.429 205.833 163.039 205.766C161.959 205.655 160.899 205.401 159.887 205.011C158.196 204.376 156.657 203.394 155.368 202.128C154.079 200.863 153.07 199.342 152.404 197.663C151.668 195.816 151.354 193.828 151.484 191.844C151.53 190.208 152.019 188.615 152.9 187.235C153.519 186.305 154.444 185.621 155.515 185.302C155.801 185.223 156.096 185.185 156.393 185.188C156.6 185.188 156.703 185.188 156.703 185.188C156.703 185.188 156.269 185.188 155.577 185.467C154.595 185.83 153.762 186.51 153.21 187.4C151.804 189.612 151.412 193.653 152.91 197.425C153.608 199.204 154.7 200.801 156.104 202.097C157.254 203.157 158.58 204.01 160.021 204.619C161.373 205.153 162.781 205.538 164.217 205.766Z" fill="#263238"/>
<path d="M188.309 206.653C188.05 203.483 187.967 200.302 188.06 197.123C187.98 193.948 188.076 190.77 188.35 187.605C188.609 190.771 188.691 193.948 188.598 197.123C188.685 200.303 188.588 203.484 188.309 206.653Z" fill="#263238"/>
<path d="M150.399 185.26C150.512 182.955 150.75 180.35 150.75 180.35C150.75 180.35 156.455 179.72 156.796 173.829C157.137 167.938 156.796 154.347 156.796 154.347L146.461 149.055L134.989 158.078L136.756 187.533L147.277 188.205C148.082 188.227 148.862 187.93 149.447 187.378C150.032 186.825 150.374 186.064 150.399 185.26Z" fill="#FFBE9D"/>
<path d="M151.422 169.167C151.422 169.167 151.422 169.28 151.329 169.415C151.252 169.512 151.153 169.589 151.039 169.64C150.926 169.69 150.802 169.712 150.678 169.704C150.016 169.704 149.376 168.939 149.148 168.05C149.04 167.62 149.04 167.169 149.148 166.738C149.169 166.55 149.237 166.37 149.346 166.215C149.454 166.06 149.599 165.934 149.768 165.849C149.907 165.792 150.063 165.792 150.202 165.849C150.305 165.9 150.389 165.984 150.44 166.087C150.512 166.262 150.44 166.376 150.44 166.366C150.44 166.355 150.44 166.262 150.337 166.159C150.283 166.085 150.203 166.034 150.114 166.014C150.024 165.995 149.93 166.01 149.851 166.056C149.724 166.132 149.619 166.24 149.545 166.368C149.471 166.496 149.43 166.641 149.427 166.789C149.34 167.174 149.34 167.573 149.427 167.957C149.634 168.764 150.192 169.415 150.688 169.477C150.785 169.49 150.884 169.483 150.978 169.456C151.072 169.43 151.16 169.384 151.236 169.322C151.36 169.239 151.401 169.156 151.422 169.167Z" fill="#EB996E"/>
<path d="M160.341 151.163C159.545 148.455 156.662 147.111 154.037 146.367C150.037 145.23 145.717 144.734 141.81 146.171C137.903 147.607 133.211 150.129 133.211 154.439C130.906 154.253 129.584 156.268 128.674 158.769C128.093 160.293 127.744 161.896 127.64 163.524C127.351 169.167 125.77 176.959 122.111 181.094C120.044 183.398 117.181 184.99 116.003 187.863C114.969 190.354 115.507 193.31 114.546 195.832C113.688 198.054 111.797 199.635 110.412 201.568C109.001 203.76 108.17 206.275 107.999 208.877C107.827 211.479 108.319 214.081 109.43 216.44C110.548 218.739 112.123 220.785 114.058 222.456C115.993 224.126 118.248 225.385 120.685 226.155C125.513 227.624 130.661 227.674 135.516 226.3C139.16 225.429 142.559 223.743 145.458 221.37C148.425 218.947 150.463 215.574 151.226 211.82C151.959 207.603 150.781 203.314 149.903 199.118C147.153 185.858 147.939 185.166 151.412 172.856C151.494 172.639 151.536 172.412 151.598 172.195C151.66 171.978 151.691 171.874 151.732 171.709C151.831 171.223 151.883 170.728 151.887 170.231C151.38 170.42 150.829 170.46 150.3 170.346C149.771 170.233 149.285 169.97 148.9 169.59C148.514 169.185 148.245 168.683 148.121 168.137C147.997 167.591 148.024 167.022 148.197 166.49C148.441 165.908 148.805 165.384 149.264 164.951C149.723 164.518 150.268 164.187 150.864 163.978C152.011 163.503 153.241 163.255 154.367 162.728C156.755 161.591 158.409 159.234 159.535 156.764C160.461 155.052 160.747 153.066 160.341 151.163Z" fill="#263238"/>
<path d="M151.835 169.447C152.054 169.769 152.234 170.116 152.373 170.48C152.683 171.131 153.096 172.051 153.551 173.116L153.634 173.312H153.417L152.383 173.405C151.67 173.405 151.071 173.539 150.368 173.529C150.307 173.515 150.25 173.486 150.203 173.445C150.156 173.403 150.12 173.35 150.099 173.291C150.068 173.197 150.068 173.096 150.099 173.002C150.123 172.863 150.154 172.725 150.192 172.589L150.378 171.855C150.472 171.365 150.617 170.887 150.812 170.429C150.793 170.928 150.72 171.423 150.595 171.906L150.45 172.64C150.399 172.888 150.306 173.271 150.45 173.24C150.967 173.24 151.701 173.126 152.383 173.085L153.417 172.992L153.282 173.219C152.838 172.186 152.466 171.214 152.249 170.542C152.058 170.199 151.919 169.83 151.835 169.447Z" fill="#3083DC"/>
<path d="M116.447 256.439L162.284 255.043L182.231 332.909L178.562 422.227H154.326L157.292 334.811L139.567 280.602L142.296 425.689L117.801 426.051L115.228 289.677C115.114 285.884 113.874 277.336 114.339 273.574L116.447 256.439Z" fill="#263238"/>
<path d="M145.665 281.707C144.915 281.755 144.162 281.709 143.422 281.573C142.038 281.408 140.146 281.118 138.069 280.705C135.991 280.291 134.131 279.816 132.787 279.434C132.069 279.276 131.374 279.026 130.72 278.689C130.72 278.534 134.09 279.341 138.224 280.178C142.358 281.015 145.686 281.552 145.665 281.707Z" fill="#455A64"/>
<path d="M178.314 417.328C178.314 417.472 172.826 417.596 166.057 417.596C159.287 417.596 153.789 417.472 153.789 417.328C153.789 417.183 159.277 417.059 166.057 417.059C172.837 417.059 178.314 417.173 178.314 417.328Z" fill="#455A64"/>
<path d="M142.079 421.916C142.079 422.071 136.746 422.185 130.173 422.185C123.599 422.185 118.277 422.071 118.277 421.916C118.277 421.761 123.61 421.648 130.173 421.648C136.736 421.648 142.079 421.772 142.079 421.916Z" fill="#455A64"/>
<path d="M138.916 421.545C138.772 421.545 138.131 389.847 137.48 350.749C136.829 311.651 136.446 279.932 136.58 279.932C136.715 279.932 137.376 311.62 138.017 350.739C138.658 389.858 139.071 421.545 138.916 421.545Z" fill="#455A64"/>
<path d="M175.059 417.328C175.047 417.187 175.047 417.045 175.059 416.904V415.664C175.059 414.547 175.141 412.946 175.203 410.909C175.348 406.775 175.555 400.771 175.813 393.412C176.371 378.612 177.157 358.21 178.015 335.689C178.015 335.472 178.015 335.266 178.015 335.08V335.152C172.589 313.448 167.679 293.749 164.114 279.497L159.98 262.64C159.504 260.666 159.142 259.126 158.884 258.051C158.76 257.544 158.677 257.152 158.605 256.852C158.565 256.718 158.54 256.579 158.533 256.439C158.586 256.569 158.628 256.704 158.657 256.842C158.739 257.131 158.843 257.524 158.987 258.02C159.266 259.053 159.669 260.624 160.186 262.588C161.22 266.577 162.677 272.324 164.496 279.404C168.093 293.646 173.054 313.293 178.552 335.028V335.1C178.552 335.286 178.552 335.503 178.552 335.71C177.632 358.231 176.795 378.622 176.185 393.422C175.865 400.791 175.596 406.755 175.41 410.909C175.307 412.977 175.224 414.547 175.172 415.664C175.172 416.191 175.11 416.604 175.1 416.904C175.102 417.046 175.088 417.188 175.059 417.328Z" fill="#455A64"/>
<path d="M167.152 333.262C165.411 333.834 163.618 334.232 161.799 334.45C159.566 334.833 157.664 335.101 156.807 335.143V334.936C157.086 335.019 157.23 335.07 157.23 335.112C157.23 335.153 157.055 335.112 156.765 335.112H156.145L156.765 334.926C157.571 334.688 159.473 334.295 161.706 333.892C163.496 333.504 165.32 333.292 167.152 333.262Z" fill="#455A64"/>
<path d="M166.728 336.227C165.116 336.301 163.501 336.228 161.902 336.01C160.288 335.977 158.679 335.8 157.096 335.483C160.326 335.219 163.577 335.47 166.728 336.227Z" fill="#455A64"/>
<path opacity="0.2" d="M116.251 258.082C116.794 258.779 117.478 259.354 118.258 259.769C119.038 260.184 119.896 260.429 120.778 260.49C122.624 260.709 124.491 260.674 126.328 260.387C138.162 259.074 150.698 257.865 162.284 255.043C147.288 255.88 131.444 255.601 116.447 256.439L116.292 257.72" fill="black"/>
<g opacity="0.2">
<path d="M131.702 279.217L140.157 312.022L139.567 280.602L131.702 279.217Z" fill="black"/>
</g>
</svg>
